<svg xmlns="http://www.w3.org/2000/svg" width="153.725" height="38.754" viewBox="110.138 40.623 153.725 38.754"><g data-name="Group 141"><g data-name="Group 236"><path d="M17.55 8.642c0 4.753.098 8.642.216 8.642.12 0 1.596-.804 3.282-1.786l3.065-1.786V3.192l-2.967-1.596C19.514.718 18.038 0 17.865 0c-.174 0-.315 3.889-.315 8.642Zm4.685 7.312c-5.653 3.186-6.914 4.08-5.932 4.202 1.247.157 1.247.157 1.247 6.008v5.85l2.29 1.252 2.288 1.252 3.087-1.77 3.086-1.77-1.21-.912c-.666-.503-1.608-1.043-2.094-1.202-.926-.921-.884-.886-.884-3.619v-3.33l6.078-3.367c3.343-1.85 6.012-3.425 5.932-3.497-.703-.633-5.627-3.193-6.1-3.17-.335.014-3.84 1.848-7.788 4.073Zm11.229 1.973c-3.46 2-3.497 2.043-2.02 2.34 3.224.651 3.776 1.382 3.776 5v3.301l-6.431 3.598c-6.087 3.406-6.348 3.615-4.884 3.908.85.17 2.517.843 3.703 1.495l2.155 1.185 2.602-1.412a425.638 425.638 0 0 0 6.01-3.349l3.408-1.937V18.023l-2.146-1.111c-1.18-.612-2.259-1.092-2.398-1.067-.138.024-1.838.961-3.775 2.082Z" fill="#f2ad0b" fill-rule="evenodd" style="--darkreader-inline-fill:#c28a09" transform="translate(119.966 40.623)" data-name="Path 1"/><path d="M.5 0h11.914a.5.5 0 0 1 .5.5v.614a.5.5 0 0 1-.5.5H.5a.5.5 0 0 1-.5-.5V.5A.5.5 0 0 1 .5 0z" fill="#f2ad0b" fill-rule="evenodd" style="--darkreader-inline-fill:#f5b725" transform="translate(121.438 40.623)" data-name="Rectangle 8"/><path d="M.5 0h8.686a.5.5 0 0 1 .5.5v.614a.5.5 0 0 1-.5.5H.5a.5.5 0 0 1-.5-.5V.5A.5.5 0 0 1 .5 0z" fill="#f2ad0b" fill-rule="evenodd" style="--darkreader-inline-fill:#f5b725" transform="translate(124.666 62.967)" data-name="Rectangle 9"/><path d="M.5 0h23.214a.5.5 0 0 1 .5.5v.614a.5.5 0 0 1-.5.5H.5a.5.5 0 0 1-.5-.5V.5A.5.5 0 0 1 .5 0z" fill="#f2ad0b" fill-rule="evenodd" style="--darkreader-inline-fill:#f5b725" transform="translate(110.138 43.852)" data-name="Rectangle 10"/><path d="M.5 0h18.371a.5.5 0 0 1 .5.5v.614a.5.5 0 0 1-.5.5H.5a.5.5 0 0 1-.5-.5V.5A.5.5 0 0 1 .5 0z" fill="#f2ad0b" fill-rule="evenodd" style="--darkreader-inline-fill:#f5b725" transform="translate(114.98 66.159)" data-name="Rectangle 11"/><path d="M.5 0h16.757a.5.5 0 0 1 .5.5v.614a.5.5 0 0 1-.5.5H.5a.5.5 0 0 1-.5-.5V.5A.5.5 0 0 1 .5 0z" fill="#f2ad0b" fill-rule="evenodd" style="--darkreader-inline-fill:#f5b725" transform="translate(116.595 47.007)" data-name="Rectangle 12"/><path d="M.5 0h11.914a.5.5 0 0 1 .5.5v.614a.5.5 0 0 1-.5.5H.5a.5.5 0 0 1-.5-.5V.5A.5.5 0 0 1 .5 0z" fill="#f2ad0b" fill-rule="evenodd" style="--darkreader-inline-fill:#f5b725" transform="translate(121.438 69.35)" data-name="Rectangle 13"/><path d="M.5 0h5.457a.5.5 0 0 1 .5.5v.614a.5.5 0 0 1-.5.5H.5a.5.5 0 0 1-.5-.5V.5A.5.5 0 0 1 .5 0z" fill="#f2ad0b" fill-rule="evenodd" style="--darkreader-inline-fill:#f5b725" transform="translate(127.895 50.199)" data-name="Rectangle 14"/><path d="M.5 0h23.214a.5.5 0 0 1 .5.5v.614a.5.5 0 0 1-.5.5H.5a.5.5 0 0 1-.5-.5V.5A.5.5 0 0 1 .5 0z" fill="#f2ad0b" fill-rule="evenodd" style="--darkreader-inline-fill:#f5b725" transform="translate(110.138 72.483)" data-name="Rectangle 15"/><path d="M.5 0h18.371a.5.5 0 0 1 .5.5v.614a.5.5 0 0 1-.5.5H.5a.5.5 0 0 1-.5-.5V.5A.5.5 0 0 1 .5 0z" fill="#f2ad0b" fill-rule="evenodd" style="--darkreader-inline-fill:#f5b725" transform="translate(114.98 53.39)" data-name="Rectangle 16"/><path d="M.5 0h11.914a.5.5 0 0 1 .5.5v.614a.5.5 0 0 1-.5.5H.5a.5.5 0 0 1-.5-.5V.5A.5.5 0 0 1 .5 0z" fill="#f2ad0b" fill-rule="evenodd" style="--darkreader-inline-fill:#f5b725" transform="translate(121.438 56.583)" data-name="Rectangle 17"/><path d="M.5 0h13.529a.5.5 0 0 1 .5.5v.614a.5.5 0 0 1-.5.5H.5a.5.5 0 0 1-.5-.5V.5A.5.5 0 0 1 .5 0z" fill="#f2ad0b" fill-rule="evenodd" style="--darkreader-inline-fill:#f5b725" transform="translate(119.823 59.775)" data-name="Rectangle 18"/></g><path d="M46.736 11.64c1.046-.562 1.744-1.589 1.744-2.984 0-2.15-1.744-3.525-4.998-3.525h-6.354v13.56h6.741c3.487 0 5.308-1.356 5.308-3.68 0-1.764-.988-2.907-2.44-3.371Zm-3.525-4.533c1.743 0 2.731.62 2.731 1.879 0 1.24-.988 1.86-2.731 1.86h-3.565v-3.74h3.565Zm.503 9.608h-4.068v-3.913h4.068c1.899 0 2.925.6 2.925 1.956 0 1.356-1.026 1.957-2.925 1.957Zm9.139-10.073c.91 0 1.55-.659 1.55-1.511 0-.794-.66-1.395-1.55-1.395-.891 0-1.55.64-1.55 1.453 0 .813.659 1.453 1.55 1.453Zm-1.22 12.049h2.42V8.346h-2.42v10.345Zm11.14-2.286c-.369.29-.853.426-1.357.426-.93 0-1.433-.542-1.433-1.55v-4.92h2.77V8.424h-2.77V6.06H57.56v2.363h-1.705v1.937h1.705v4.978c0 2.286 1.298 3.487 3.564 3.487.872 0 1.744-.232 2.325-.697l-.678-1.724Zm12.51-4.765c1.046-.562 1.743-1.589 1.743-2.984 0-2.15-1.743-3.525-4.998-3.525h-6.354v13.56h6.742c3.487 0 5.307-1.356 5.307-3.68 0-1.764-.988-2.907-2.44-3.371Zm-3.526-4.533c1.743 0 2.731.62 2.731 1.879 0 1.24-.988 1.86-2.731 1.86h-3.564v-3.74h3.564Zm.504 9.608h-4.068v-3.913h4.068c1.898 0 2.925.6 2.925 1.956 0 1.356-1.027 1.957-2.925 1.957Zm12.567 2.111c3.215 0 5.52-2.208 5.52-5.307 0-3.1-2.305-5.289-5.52-5.289-3.177 0-5.502 2.19-5.502 5.289 0 3.099 2.325 5.307 5.502 5.307Zm0-2.072c-1.744 0-3.06-1.26-3.06-3.235 0-1.976 1.316-3.235 3.06-3.235 1.763 0 3.08 1.259 3.08 3.235 0 1.975-1.317 3.235-3.08 3.235Zm10.141-6.897v-1.51h-2.305V18.69h2.422v-5.017c0-2.112 1.162-3.197 3.002-3.197.174 0 .349.02.562.058V8.23c-1.724 0-2.983.543-3.68 1.627Zm13.602-1.51v1.375c-.852-1.027-2.13-1.492-3.584-1.492-2.963 0-5.23 1.976-5.23 4.979 0 3.002 2.267 5.017 5.23 5.017 1.395 0 2.616-.446 3.468-1.376v.543c0 2.092-1.007 3.138-3.293 3.138-1.434 0-2.906-.484-3.816-1.24l-1.085 1.821c1.181.969 3.1 1.472 5.036 1.472 3.623 0 5.58-1.704 5.58-5.462V8.346h-2.306Zm-3.216 7.825c-1.84 0-3.157-1.2-3.157-2.963 0-1.744 1.317-2.925 3.157-2.925 1.821 0 3.139 1.181 3.139 2.925 0 1.762-1.318 2.963-3.139 2.963Z" fill="#f2ad0b" fill-rule="evenodd" style="--darkreader-inline-fill:#c28a09" transform="translate(132.514 42.792)" data-name="Path 2"/><path d="M40.857 24.793c.998 0 1.889-.34 2.49-.998l-.456-.455c-.552.572-1.23.814-2.005.814-1.637 0-2.867-1.201-2.867-2.81 0-1.607 1.23-2.808 2.867-2.808.775 0 1.453.242 2.005.804l.455-.455c-.6-.659-1.491-.988-2.48-.988-2.043 0-3.554 1.462-3.554 3.448 0 1.985 1.511 3.448 3.545 3.448Zm7.436-5.192c-.862 0-1.53.34-1.908.93v-2.983h-.688v7.187h.688v-2.673c0-1.163.688-1.84 1.782-1.84.969 0 1.53.551 1.53 1.626v2.887h.688V21.78c0-1.463-.852-2.18-2.092-2.18Zm9.393 2.586c0-1.53-1.037-2.586-2.47-2.586-1.434 0-2.49 1.075-2.49 2.586s1.085 2.596 2.674 2.596c.804 0 1.51-.29 1.966-.833l-.387-.445c-.388.445-.94.668-1.56.668-1.114 0-1.927-.707-2.005-1.772h4.262c0-.078.01-.155.01-.214Zm-2.47-1.995c.997 0 1.724.698 1.811 1.695h-3.613c.087-.997.814-1.695 1.802-1.695Zm6.95 4.591c.861 0 1.588-.348 1.995-1.007l-.514-.349c-.348.514-.89.746-1.482.746-1.113 0-1.927-.785-1.927-1.986 0-1.19.814-1.985 1.927-1.985.591 0 1.134.242 1.482.755l.514-.348c-.407-.669-1.134-1.008-1.996-1.008-1.52 0-2.624 1.066-2.624 2.586 0 1.521 1.104 2.596 2.624 2.596Zm8.18-.048h.843l-2.383-3.012 2.18-2.083h-.853l-3.041 2.78v-4.872h-.688v7.187h.688v-1.453l1.201-1.104 2.053 2.557Zm8.788-.804c-.193.174-.474.261-.755.261-.571 0-.881-.329-.881-.93v-3.04h1.55v-.582h-1.55v-1.114h-.688v1.114h-.91v.581h.91v3.08c0 .94.533 1.482 1.491 1.482.398 0 .804-.116 1.076-.358l-.243-.494Zm5.059-4.33c-.862 0-1.53.34-1.908.93v-2.983h-.688v7.187h.688v-2.673c0-1.163.687-1.84 1.782-1.84.968 0 1.53.551 1.53 1.626v2.887h.688V21.78c0-1.463-.852-2.18-2.092-2.18Zm9.392 2.586c0-1.53-1.036-2.586-2.47-2.586-1.433 0-2.489 1.075-2.489 2.586s1.085 2.596 2.673 2.596c.804 0 1.511-.29 1.966-.833l-.387-.445c-.387.445-.94.668-1.56.668-1.113 0-1.927-.707-2.004-1.772h4.261c0-.078.01-.155.01-.214Zm-2.47-1.995c.998 0 1.724.698 1.811 1.695h-3.612c.087-.997.813-1.695 1.801-1.695Zm9.708 4.591c1.326 0 2.101-.571 2.101-1.453 0-1.956-3.302-.92-3.302-2.295 0-.484.406-.843 1.326-.843.523 0 1.056.126 1.502.436l.3-.552c-.426-.29-1.143-.475-1.802-.475-1.297 0-2.014.62-2.014 1.453 0 2.015 3.303.969 3.303 2.296 0 .503-.397.833-1.366.833-.717 0-1.404-.252-1.811-.572l-.31.543c.416.358 1.23.63 2.073.63Zm4.69-6.257a.488.488 0 1 0 0-.978.496.496 0 0 0-.504.484c0 .271.223.494.504.494Zm-.349 6.209h.688V19.64h-.688v5.095Zm7.628-5.095v.978c-.426-.668-1.162-1.017-2.014-1.017-1.453 0-2.557.998-2.557 2.46 0 1.463 1.104 2.48 2.557 2.48.833 0 1.56-.339 1.985-.988v.65c0 1.258-.59 1.85-1.879 1.85-.784 0-1.52-.262-2.005-.698l-.348.523c.532.503 1.443.784 2.373.784 1.685 0 2.547-.794 2.547-2.547V19.64h-.659Zm-1.947 4.29c-1.123 0-1.927-.764-1.927-1.868 0-1.105.804-1.86 1.927-1.86 1.124 0 1.938.755 1.938 1.86 0 1.104-.814 1.869-1.938 1.869Zm8.093-4.329c-.881 0-1.569.359-1.937.979v-.94h-.658v5.095h.687v-2.673c0-1.163.688-1.84 1.782-1.84.969 0 1.53.551 1.53 1.626v2.887h.689V21.78c0-1.463-.853-2.18-2.093-2.18Zm6.71 0c-.804 0-1.56.252-2.073.688l.31.513c.417-.368 1.037-.6 1.695-.6.95 0 1.444.474 1.444 1.346v.31h-1.618c-1.463 0-1.966.659-1.966 1.443 0 .882.707 1.482 1.86 1.482.842 0 1.443-.32 1.753-.842v.794h.658v-3.158c0-1.317-.746-1.976-2.063-1.976Zm-.242 4.64c-.814 0-1.288-.368-1.288-.96 0-.522.32-.91 1.307-.91h1.599v.833c-.272.669-.843 1.037-1.618 1.037Zm5.142.494h.687v-7.187h-.687v7.187Z" fill="#fff" fill-rule="evenodd" style="--darkreader-inline-fill:#181a1b" transform="translate(132.627 50.976)" data-name="Path 3"/></g></svg>