<svg xmlns="http://www.w3.org/2000/svg" width="77" height="70" viewBox="150 272.95 77 70"><g data-name="Group 1102"><g data-name="confetti"><path d="M0 .9A1 1 0 1 1 0 1z" fill="#fff" fill-rule="evenodd" style="--darkreader-inline-fill:#e8e6e3" transform="translate(180 301)" data-name="Ellipse 73"/><path d="M0 .9A1 1 0 1 1 0 1z" fill="#fff" fill-rule="evenodd" style="--darkreader-inline-fill:#e8e6e3" transform="translate(176 297)" data-name="Ellipse 74"/><path d="M0 .9A1 1 0 1 1 0 1z" fill="#fff" fill-rule="evenodd" style="--darkreader-inline-fill:#e8e6e3" transform="translate(180 293)" data-name="Ellipse 75"/><path d="M0 .9A1 1 0 1 1 0 1z" fill="#fff" fill-rule="evenodd" style="--darkreader-inline-fill:#e8e6e3" transform="translate(176 289)" data-name="Ellipse 76"/><path d="M0 .9A1 1 0 1 1 0 1z" fill="#fff" fill-rule="evenodd" style="--darkreader-inline-fill:#e8e6e3" transform="translate(198 301)" data-name="Ellipse 77"/><path d="M0 .9A1 1 0 1 1 0 1z" fill="#fff" fill-rule="evenodd" style="--darkreader-inline-fill:#e8e6e3" transform="translate(194 297)" data-name="Ellipse 78"/><path d="M0 .9A1 1 0 1 1 0 1z" fill="#fff" fill-rule="evenodd" style="--darkreader-inline-fill:#e8e6e3" transform="translate(198 293)" data-name="Ellipse 79"/><path d="M0 .9A1 1 0 1 1 0 1z" fill="#fff" fill-rule="evenodd" style="--darkreader-inline-fill:#e8e6e3" transform="translate(194 289)" data-name="Ellipse 80"/><path d="M0 .9A1 1 0 1 1 0 1z" fill="#fff" fill-rule="evenodd" style="--darkreader-inline-fill:#e8e6e3" transform="translate(189 311)" data-name="Ellipse 81"/><path d="M0 .9A1 1 0 1 1 0 1z" fill="#fff" fill-rule="evenodd" style="--darkreader-inline-fill:#e8e6e3" transform="translate(185 307)" data-name="Ellipse 82"/><path d="M0 .9A1 1 0 1 1 0 1z" fill="#fff" fill-rule="evenodd" style="--darkreader-inline-fill:#e8e6e3" transform="translate(189 303)" data-name="Ellipse 83"/><path d="M0 .9A1 1 0 1 1 0 1z" fill="#fff" fill-rule="evenodd" style="--darkreader-inline-fill:#e8e6e3" transform="translate(185 299)" data-name="Ellipse 84"/><path d="M15 3a2 2 0 0 1-2-2 1 1 0 0 0-2 0 2 2 0 0 1-2 2 1 1 0 1 0 0 2 2 2 0 0 1 2 2 1 1 0 1 0 2 0 2 2 0 0 1 2-2 1 1 0 1 0 0-2Z" fill="#fff" fill-rule="evenodd" style="--darkreader-inline-fill:#e8e6e3" transform="translate(176 289)" data-name="Path 606"/><path d="M7 19a2 2 0 0 1-2-2 1 1 0 0 0-2 0 2 2 0 0 1-2 2 1 1 0 1 0 0 2 2 2 0 0 1 2 2 1 1 0 0 0 2 0 2 2 0 0 1 2-2 1 1 0 0 0 0-2Z" fill="#fff" fill-rule="evenodd" style="--darkreader-inline-fill:#e8e6e3" transform="translate(176 289)" data-name="Path 607"/><path d="M23 19a2 2 0 0 1-2-2 1 1 0 0 0-2 0 2 2 0 0 1-2 2 1 1 0 0 0 0 2 2 2 0 0 1 2 2 1 1 0 1 0 2 0 2 2 0 0 1 2-2 1 1 0 0 0 0-2Z" fill="#fff" fill-rule="evenodd" style="--darkreader-inline-fill:#e8e6e3" transform="translate(176 289)" data-name="Path 608"/></g><g data-name="btc"><path d="M0 15.9a16 16 0 1 1 0 .1z" fill="#f7931a" fill-rule="evenodd" style="--darkreader-inline-fill:#f89c2d" transform="translate(172 311)" data-name="Ellipse 71"/><path d="M23.189 14.02c.314-2.096-1.283-3.223-3.465-3.975l.708-2.84-1.728-.43-.69 2.765c-.454-.114-.92-.22-1.385-.326l.695-2.783L15.596 6l-.708 2.839c-.376-.086-.746-.17-1.104-.26l.002-.009-2.384-.595-.46 1.846s1.283.294 1.256.312c.7.175.826.638.805 1.006l-.806 3.235c.048.012.11.03.18.057l-.183-.045-1.13 4.532c-.086.212-.303.531-.793.41.018.025-1.256-.313-1.256-.313l-.858 1.978 2.25.561c.418.105.828.215 1.231.318l-.715 2.872 1.727.43.708-2.84c.472.127.93.245 1.378.357l-.706 2.828 1.728.43.715-2.866c2.948.558 5.164.333 6.097-2.333.752-2.146-.037-3.385-1.588-4.192 1.13-.26 1.98-1.003 2.207-2.538Zm-3.95 5.538c-.533 2.147-4.148.986-5.32.695l.95-3.805c1.172.293 4.929.872 4.37 3.11Zm.535-5.569c-.487 1.953-3.495.96-4.47.717l.86-3.45c.975.243 4.118.696 3.61 2.733Z" fill="#fff" fill-rule="evenodd" style="--darkreader-inline-fill:#e8e6e3" transform="translate(172 311)" data-name="Path 605"/></g><g data-name="eth"><path d="M0 15.9a16 16 0 1 1 0 .1z" fill="#627eea" fill-rule="evenodd" style="--darkreader-inline-fill:#649fea" transform="translate(150 273)" data-name="Ellipse 69"/><g data-name="Group 1101"><path d="M16.498 4v8.87l7.497 3.35L16.498 4Z" fill="rgba(255,255,255,0.6 )" fill-rule="evenodd" style="--darkreader-inline-fill:rgba(232, 230, 227, 0.6)" transform="translate(150 273)" data-name="Path 598"/><path d="M16.498 4 9 16.22l7.498-3.35V4Z" fill="#fff" fill-rule="evenodd" style="--darkreader-inline-fill:#e8e6e3" transform="translate(150 273)" data-name="Path 599"/><path d="M16.498 21.968v6.027L24 17.616l-7.502 4.352Z" fill="rgba(255,255,255,0.6 )" fill-rule="evenodd" style="--darkreader-inline-fill:rgba(232, 230, 227, 0.6)" transform="translate(150 273)" data-name="Path 600"/><path d="M16.498 27.995v-6.028L9 17.616l7.498 10.379Z" fill="#fff" fill-rule="evenodd" style="--darkreader-inline-fill:#e8e6e3" transform="translate(150 273)" data-name="Path 601"/><path d="m16.498 20.573 7.497-4.353-7.497-3.348v7.701Z" fill="rgba(255,255,255,0.2 )" fill-rule="evenodd" style="--darkreader-inline-fill:rgba(232, 230, 227, 0.2)" transform="translate(150 273)" data-name="Path 602"/><path d="m9 16.22 7.498 4.353v-7.701L9 16.22Z" fill="rgba(255,255,255,0.6 )" fill-rule="evenodd" style="--darkreader-inline-fill:rgba(232, 230, 227, 0.6)" transform="translate(150 273)" data-name="Path 603"/></g></g><g data-name="bch"><path d="M0 15.9a16 16 0 1 1 0 .1z" fill="#8dc351" fill-rule="evenodd" style="--darkreader-inline-fill:#96c85f" transform="translate(195 273)" data-name="Ellipse 70"/><path d="M21.207 10.534c-.776-1.972-2.722-2.15-4.988-1.71l-.807-2.813-1.712.491.786 2.74c-.45.128-.908.27-1.363.41l-.79-2.758-1.711.49.805 2.813c-.368.114-.73.226-1.085.328l-.003-.01-2.362.677.525 1.83s1.258-.388 1.243-.358c.694-.199 1.035.139 1.2.468l.92 3.204c.047-.013.11-.029.184-.04l-.181.052 1.287 4.49c.032.227.004.612-.48.752.027.013-1.246.356-1.246.356l.247 2.143 2.228-.64c.415-.117.825-.227 1.226-.34l.817 2.845 1.71-.49-.807-2.815c.459-.122.916-.248 1.372-.38l.802 2.803 1.713-.491-.814-2.84c2.831-.991 4.638-2.294 4.113-5.07-.422-2.234-1.724-2.912-3.471-2.836.848-.79 1.213-1.858.642-3.3Zm-.65 6.77c.61 2.127-3.1 2.929-4.26 3.263l-1.081-3.77c1.16-.333 4.704-1.71 5.34.508Zm-2.322-5.09c.554 1.935-2.547 2.58-3.514 2.857l-.98-3.419c.966-.277 3.915-1.455 4.494.563Z" fill="#fff" fill-rule="evenodd" style="--darkreader-inline-fill:#e8e6e3" transform="translate(195 273)" data-name="Path 604"/></g></g></svg>