<?xml version="1.0" encoding="UTF-8"?>
<svg xmlns="http://www.w3.org/2000/svg" xmlns:xlink="http://www.w3.org/1999/xlink" width="27px" height="27px" viewBox="0 0 27 27" version="1.1">
<g id="surface1">
<path style=" stroke:none;fill-rule:nonzero;fill:rgb(96.862745%,57.647059%,10.196078%);fill-opacity:1;" d="M 26.59375 16.765625 C 24.789062 23.996094 17.464844 28.398438 10.230469 26.597656 C 3.003906 24.792969 -1.398438 17.46875 0.402344 10.234375 C 2.207031 3.003906 9.53125 -1.398438 16.761719 0.402344 C 23.996094 2.207031 28.394531 9.53125 26.59375 16.765625 Z M 26.59375 16.765625 "/>
<path style=" stroke:none;fill-rule:nonzero;fill:rgb(100%,100%,100%);fill-opacity:1;" d="M 19.449219 11.578125 C 19.71875 9.78125 18.351562 8.816406 16.480469 8.171875 L 17.089844 5.738281 L 15.605469 5.367188 L 15.015625 7.738281 C 14.625 7.640625 14.226562 7.546875 13.828125 7.457031 L 14.425781 5.074219 L 12.945312 4.703125 L 12.335938 7.136719 C 12.015625 7.0625 11.699219 6.992188 11.390625 6.914062 L 11.394531 6.90625 L 9.351562 6.394531 L 8.957031 7.976562 C 8.957031 7.976562 10.054688 8.230469 10.03125 8.246094 C 10.632812 8.394531 10.742188 8.792969 10.722656 9.109375 L 10.03125 11.878906 C 10.070312 11.890625 10.125 11.90625 10.183594 11.929688 L 10.027344 11.890625 L 9.058594 15.773438 C 8.988281 15.957031 8.800781 16.230469 8.382812 16.125 C 8.394531 16.148438 7.304688 15.855469 7.304688 15.855469 L 6.570312 17.550781 L 8.496094 18.03125 C 8.855469 18.121094 9.207031 18.21875 9.550781 18.304688 L 8.941406 20.765625 L 10.417969 21.136719 L 11.027344 18.703125 C 11.429688 18.8125 11.824219 18.914062 12.207031 19.007812 L 11.601562 21.429688 L 13.082031 21.800781 L 13.695312 19.34375 C 16.222656 19.820312 18.121094 19.628906 18.917969 17.34375 C 19.5625 15.503906 18.886719 14.445312 17.558594 13.753906 C 18.527344 13.527344 19.257812 12.890625 19.449219 11.578125 Z M 16.066406 16.324219 C 15.609375 18.160156 12.511719 17.167969 11.507812 16.917969 L 12.320312 13.65625 C 13.324219 13.90625 16.542969 14.402344 16.066406 16.324219 Z M 16.523438 11.550781 C 16.105469 13.222656 13.527344 12.375 12.691406 12.164062 L 13.429688 9.207031 C 14.265625 9.414062 16.960938 9.804688 16.523438 11.550781 Z M 16.523438 11.550781 "/>
</g>
</svg>
