<svg xmlns="http://www.w3.org/2000/svg" width="18" height="18" viewBox="64 268 18 18"><g data-name="clock"><path d="M9 0a9 9 0 1 0 9 9 9.01 9.01 0 0 0-9-9Zm0 16.5A7.5 7.5 0 1 1 16.5 9 7.508 7.508 0 0 1 9 16.5Z" fill="#5f606a" fill-rule="evenodd" style="--darkreader-inline-fill:#a9a196" transform="translate(64 268)" data-name="Path 591"/><path d="M10.79 6a.75.75 0 0 0-.75.75v3.244L7.51 11.578a.752.752 0 1 0 .797 1.275l2.88-1.8a.75.75 0 0 0 .351-.644V6.75a.75.75 0 0 0-.75-.75Z" fill="#5f606a" fill-rule="evenodd" style="--darkreader-inline-fill:#a9a196" transform="translate(62.21 266.5)" data-name="Path 592"/></g></svg>