<svg xmlns="http://www.w3.org/2000/svg" width="17.998" height="18" viewBox="76.274 149 17.998 18"><path d="m17.415 4.307-2.258-3.05A3.004 3.004 0 0 0 12.716 0H5.284A3 3 0 0 0 2.85 1.242L.55 4.315a2.995 2.995 0 0 0 .092 3.588l6.594 9.246c.426.539 1.076.853 1.763.851a2.254 2.254 0 0 0 1.783-.881l6.542-9.144a3 3 0 0 0 .09-3.668Zm-3.471-2.169 2.263 3.059c.012.016.015.036.027.053h-3.669l-1.07-3.75h1.221c.488.002.946.24 1.228.638ZM9 14.338 6.975 6.75h4.05L9 14.338ZM6.994 5.25 8.065 1.5h1.87l1.07 3.75h-4.01ZM4.063 2.128a1.505 1.505 0 0 1 1.22-.628h1.222l-1.07 3.75H1.737c.01-.017.014-.037.026-.053l2.299-3.07ZM1.836 6.994a1.425 1.425 0 0 1-.139-.244h3.727l2.245 8.422-5.833-8.178Zm8.492 8.186 2.25-8.43h3.74c-.049.112-.11.218-.183.316l-5.807 8.114Z" fill="#f2ad0b" fill-rule="evenodd" style="--darkreader-inline-fill:#f5b725" transform="translate(76.275 149)" data-name="diamond"/></svg>