<svg xmlns="http://www.w3.org/2000/svg" width="18.414" height="13.509" viewBox="23.793 44.246 18.414 13.509"><g data-name="Group 1131"><path d="M18.414 7.15A1.15 1.15 0 0 0 17.264 6H1.15a1.15 1.15 0 0 0 0 2.302h16.112a1.15 1.15 0 0 0 1.151-1.151Z" fill="#fff" fill-rule="evenodd" style="--darkreader-inline-fill:#e8e6e3" transform="translate(23.793 38.246)" data-name="line-width"/><path d="M18.414 7.15A1.15 1.15 0 0 0 17.264 6H1.15a1.15 1.15 0 0 0 0 2.302h16.112a1.15 1.15 0 0 0 1.151-1.151Z" fill="#fff" fill-rule="evenodd" style="--darkreader-inline-fill:#e8e6e3" transform="translate(23.793 43.85)" data-name="line-width"/><path d="M18.414 7.15A1.15 1.15 0 0 0 17.264 6H1.15a1.15 1.15 0 0 0 0 2.302h16.112a1.15 1.15 0 0 0 1.151-1.151Z" fill="#fff" fill-rule="evenodd" style="--darkreader-inline-fill:#e8e6e3" transform="translate(23.793 49.453)" data-name="line-width"/></g></svg>