<svg xmlns="http://www.w3.org/2000/svg" width="22.346" height="20.484" viewBox="35.827 294.758 22.346 20.484"><g data-name="envelope"><path d="m22.304 5.542-7.838 7.838a4.662 4.662 0 0 1-6.585 0L.043 5.542C.03 5.689 0 5.822 0 5.968v11.174a4.661 4.661 0 0 0 4.656 4.655H17.69a4.661 4.661 0 0 0 4.655-4.655V5.968c0-.146-.03-.279-.042-.426Z" fill="#fff" fill-rule="evenodd" style="--darkreader-inline-fill:#e8e6e3" transform="translate(35.827 293.445)" data-name="Path 583"/><path d="m13.2 11.75 8.505-8.505A4.642 4.642 0 0 0 17.742 1H4.707A4.642 4.642 0 0 0 .744 3.245l8.505 8.505a2.8 2.8 0 0 0 3.951 0Z" fill="#fff" fill-rule="evenodd" style="--darkreader-inline-fill:#e8e6e3" transform="translate(35.776 293.758)" data-name="Path 584"/></g></svg>