<svg xmlns="http://www.w3.org/2000/svg" width="23.816" height="31.754" viewBox="130.592 744 23.816 31.754"><path d="M20.2.397c.934.32 1.784.846 2.486 1.54l2.191 2.194a6.555 6.555 0 0 1 1.542 2.484H20.2V.397Zm-2.646 15.48h-5.292a1.323 1.323 0 0 0 0 2.646h5.292a1.323 1.323 0 1 0 0-2.646ZM20.2 9.262a2.646 2.646 0 0 1-2.646-2.647V0H9.615A6.623 6.623 0 0 0 3 6.615V25.14a6.623 6.623 0 0 0 6.615 6.615H20.2a6.623 6.623 0 0 0 6.616-6.615V9.262H20.2Zm0 17.2H9.615a1.323 1.323 0 0 1 0-2.646H20.2a1.323 1.323 0 0 1 0 2.646Zm-2.646-5.292h-5.292a3.97 3.97 0 1 1 0-7.939h5.292a3.97 3.97 0 1 1 0 7.939Z" fill="#f2ad0b" fill-rule="evenodd" style="--darkreader-inline-fill:#f5b725" transform="translate(127.592 744)" data-name="form"/></svg>