<svg xmlns="http://www.w3.org/2000/svg" width="35.465" height="35.465" viewBox="305.768 744 35.465 35.465"><g data-name="Group 1098"><path d="M0 0h15.205v15.205H0V0Z" fill="#021151" fill-rule="evenodd" style="--darkreader-inline-fill:#cecac3" transform="rotate(-45 1075.866 3.349) scale(.99985)" data-name="Path 116"/><path d="M266.751 111.536 256 100.785v21.502l10.751-10.75Z" fill="#021151" fill-rule="evenodd" style="--darkreader-inline-fill:#cecac3" transform="translate(67.5 650.196)" data-name="Path 117"/><g data-name="Gem_28_"><g data-name="Group 19"><path d="M245.81 228.078c0 .27-.104.54-.311.727l-16.694 16.693a.974.974 0 0 1-.727.312L226 240.026l2.078-4.135 7.813-7.813 3.831-2.078 6.088 2.078Z" fill="#011c94" fill-rule="evenodd" style="--darkreader-inline-fill:#74b0fe" transform="translate(95.422 533.654)" data-name="Path 118"/><path d="m17.732 0 2.078 5.784-2.078 4.135-7.813 7.813L5.11 19.81 0 17.732c0-.27.104-.54.312-.727L17.005.312A.974.974 0 0 1 17.732 0Z" fill="#011c94" fill-rule="evenodd" style="--darkreader-inline-fill:#74b0fe" transform="translate(305.768 744)" data-name="Path 119"/></g></g><g data-name="Group 20"><path d="M17.732 263.813v9.92a.974.974 0 0 1-.727-.312L.312 256.727A.974.974 0 0 1 0 256h9.919l7.813 7.813Z" fill="#4366ff" fill-rule="evenodd" style="--darkreader-inline-fill:#4898ff" transform="translate(305.768 505.732)" data-name="Path 120"/><path d="M273.732 17.732h-9.919L256 9.92V0c.27 0 .54.104.727.312l16.693 16.693a.974.974 0 0 1 .312.727Z" fill="#4366ff" fill-rule="evenodd" style="--darkreader-inline-fill:#4898ff" transform="translate(67.5 744)" data-name="Path 121"/></g></g></svg>