<svg xmlns="http://www.w3.org/2000/svg" width="24" height="24" viewBox="35 293 24 24"><path d="M12 0C5.373 0 0 5.373 0 12s5.373 12 12 12 12-5.373 12-12C23.993 5.376 18.624.007 12 0Zm8.941 11h-3.478a18.368 18.368 0 0 0-2.289-7.411A9.013 9.013 0 0 1 20.941 11ZM9.685 14h4.63A16.946 16.946 0 0 1 12 19.9 16.938 16.938 0 0 1 9.685 14Zm-.132-3A16.246 16.246 0 0 1 12 4.1a16.241 16.241 0 0 1 2.447 6.9H9.553Zm-.727-7.411A18.368 18.368 0 0 0 6.537 11H3.059a9.013 9.013 0 0 1 5.767-7.411ZM3.232 14h3.409a18.906 18.906 0 0 0 2.185 6.411A9.021 9.021 0 0 1 3.232 14Zm11.942 6.411A18.884 18.884 0 0 0 17.359 14h3.409a9.021 9.021 0 0 1-5.594 6.411Z" fill="#fff" fill-rule="evenodd" style="--darkreader-inline-fill:#e8e6e3" transform="translate(35 293)" data-name="globe"/></svg>