<svg xmlns="http://www.w3.org/2000/svg" width="17.073" height="15.001" viewBox="24 159 17.073 15.001"><path d="M12.443 1.917a4.551 4.551 0 0 0-3.911 2.347A4.551 4.551 0 0 0 4.62 1.917 4.835 4.835 0 0 0-.001 6.93c0 3.234 3.403 6.765 6.257 9.16a3.537 3.537 0 0 0 4.551 0c2.855-2.395 6.258-5.926 6.258-9.16a4.835 4.835 0 0 0-4.622-5.013Zm-2.55 13.084a2.114 2.114 0 0 1-2.723 0c-3.654-3.065-5.75-6.006-5.75-8.07a3.413 3.413 0 0 1 3.2-3.592 3.413 3.413 0 0 1 3.2 3.591.711.711 0 1 0 1.423 0 3.413 3.413 0 0 1 3.2-3.59 3.413 3.413 0 0 1 3.2 3.59c0 2.065-2.096 5.006-5.75 8.068Z" fill="#fff" fill-rule="evenodd" style="--darkreader-inline-fill:#e8e6e3" transform="translate(24.005 157.083)" data-name="heart (1)"/></svg>