<svg xmlns="http://www.w3.org/2000/svg" width="30.903" height="30.883" viewBox="5328 581 30.903 30.883"><path d="M21.89 23.318v7.725h5.15a3.863 3.863 0 0 0 3.863-3.863V15.436c0-.669-.26-1.312-.725-1.792L19.236 1.814a5.15 5.15 0 0 0-7.565 0L.748 13.64A2.575 2.575 0 0 0 0 15.455V27.18a3.863 3.863 0 0 0 3.863 3.863h5.15v-7.725c.024-3.512 2.86-6.379 6.282-6.461 3.537-.086 6.567 2.83 6.594 6.46Z" fill="#bfbfbf" fill-rule="evenodd" style="--darkreader-inline-fill:#c0bab2" transform="translate(5328 580.84)" data-name="Path 594"/></svg>