<svg xmlns="http://www.w3.org/2000/svg" width="20.141" height="24.169" viewBox="42.667 0 20.141 24.169"><path d="M59.787 8.483V7.05a7.05 7.05 0 1 0-14.099 0v1.434a5.035 5.035 0 0 0-3.021 4.608v6.043a5.041 5.041 0 0 0 5.035 5.035h10.07a5.041 5.041 0 0 0 5.036-5.035V13.09a5.035 5.035 0 0 0-3.021-4.608Zm-6.043 8.637a1.007 1.007 0 1 1-2.014 0v-2.015a1.007 1.007 0 1 1 2.014 0v2.015Zm4.028-9.064h-10.07V7.05a5.035 5.035 0 0 1 10.07 0v1.007Z" fill="#fff" fill-rule="evenodd" style="--darkreader-inline-fill:#e8e6e3" data-name="Path 585"/></svg>