<svg xmlns="http://www.w3.org/2000/svg" width="23.583" height="24" viewBox="77.129 286 23.583 24"><g data-name="sign-out-alt"><path d="M11.5 16a1.5 1.5 0 0 0-1.5 1.5v.8A2.7 2.7 0 0 1 7.3 21H5.7A2.7 2.7 0 0 1 3 18.3V5.7A2.7 2.7 0 0 1 5.7 3h1.6A2.7 2.7 0 0 1 10 5.7v.8a1.5 1.5 0 1 0 3 0v-.8A5.706 5.706 0 0 0 7.3 0H5.7A5.706 5.706 0 0 0 0 5.7v12.6A5.706 5.706 0 0 0 5.7 24h1.6a5.706 5.706 0 0 0 5.7-5.7v-.8a1.5 1.5 0 0 0-1.5-1.5Z" fill="#fff" fill-rule="evenodd" style="--darkreader-inline-fill:#e8e6e3" transform="translate(77.129 286)" data-name="Path 613"/><path d="m22.561 9.525-4.586-4.586a1.5 1.5 0 1 0-2.121 2.122l3.411 3.411L7 10.5a1.5 1.5 0 1 0 0 3l12.318-.028-3.467 3.467a1.5 1.5 0 0 0 2.121 2.122l4.586-4.586a3.505 3.505 0 0 0 .003-4.95Z" fill="#fff" fill-rule="evenodd" style="--darkreader-inline-fill:#e8e6e3" transform="translate(77.129 286)" data-name="Path 614"/></g></svg>