<svg xmlns="http://www.w3.org/2000/svg" width="79.906" height="60.66"><g data-name="Group 236"><path d="M18.4 13.527c0 7.44.15 13.527.334 13.527.185 0 2.471-1.258 5.081-2.796l4.746-2.796V4.995l-4.594-2.498C21.441 1.124 19.155 0 18.887 0c-.268 0-.487 6.087-.487 13.527Zm7.253 11.445c-8.752 4.987-10.705 6.385-9.184 6.578 1.93.245 1.93.245 1.93 9.403v9.158l3.545 1.959 3.544 1.958 4.778-2.77 4.779-2.769-1.874-1.429c-1.03-.786-2.49-1.632-3.242-1.88-1.433-1.443-1.368-1.387-1.368-5.665v-5.213l9.41-5.27c5.175-2.896 9.308-5.36 9.184-5.473-1.089-.991-8.711-4.998-9.444-4.964-.519.024-5.945 2.894-12.058 6.377Zm17.384 3.088c-5.356 3.13-5.412 3.197-3.126 3.664 4.991 1.018 5.846 2.162 5.846 7.826v5.167L35.8 50.348c-9.424 5.331-9.829 5.658-7.562 6.117 1.318.267 3.897 1.32 5.733 2.34l3.338 1.855 4.028-2.21a656.922 656.922 0 0 0 9.305-5.242l5.276-3.033V28.211l-3.322-1.74c-1.828-.957-3.498-1.709-3.713-1.67-.215.038-2.846 1.505-5.846 3.259Z" fill="#f2ad0b" fill-rule="evenodd" style="--darkreader-inline-fill:#c28a09" transform="translate(23.988)" data-name="Path 1"/><path d="M.5 0h18.994a.5.5 0 0 1 .5.5V2a.5.5 0 0 1-.5.5H.5A.5.5 0 0 1 0 2V.5A.5.5 0 0 1 .5 0z" fill="#f2ad0b" fill-rule="evenodd" style="--darkreader-inline-fill:#f5b725" transform="translate(17.495)" data-name="Rectangle 8"/><path d="M.5 0h13.996a.5.5 0 0 1 .5.5V2a.5.5 0 0 1-.5.5H.5A.5.5 0 0 1 0 2V.5A.5.5 0 0 1 .5 0z" fill="#f2ad0b" fill-rule="evenodd" style="--darkreader-inline-fill:#f5b725" transform="translate(22.494 34.99)" data-name="Rectangle 9"/><path d="M.5 0h36.49a.5.5 0 0 1 .5.5V2a.5.5 0 0 1-.5.5H.5A.5.5 0 0 1 0 2V.5A.5.5 0 0 1 .5 0z" fill="#f2ad0b" fill-rule="evenodd" style="--darkreader-inline-fill:#c28a09" transform="translate(0 4.999)" data-name="Rectangle 10"/><path d="M.5 0h28.991a.5.5 0 0 1 .5.5V2a.5.5 0 0 1-.5.5H.5A.5.5 0 0 1 0 2V.5A.5.5 0 0 1 .5 0z" fill="#f2ad0b" fill-rule="evenodd" style="--darkreader-inline-fill:#f5b725" transform="translate(7.498 39.988)" data-name="Rectangle 11"/><path d="M.5 0h26.492a.5.5 0 0 1 .5.5V2a.5.5 0 0 1-.5.5H.5A.5.5 0 0 1 0 2V.5A.5.5 0 0 1 .5 0z" fill="#f2ad0b" fill-rule="evenodd" style="--darkreader-inline-fill:#f5b725" transform="translate(9.997 9.997)" data-name="Rectangle 12"/><path d="M.5 0h18.994a.5.5 0 0 1 .5.5V2a.5.5 0 0 1-.5.5H.5A.5.5 0 0 1 0 2V.5A.5.5 0 0 1 .5 0z" fill="#f2ad0b" fill-rule="evenodd" style="--darkreader-inline-fill:#f5b725" transform="translate(17.495 44.987)" data-name="Rectangle 13"/><path d="M.5 0h8.997a.5.5 0 0 1 .5.5V2a.5.5 0 0 1-.5.5H.5A.5.5 0 0 1 0 2V.5A.5.5 0 0 1 .5 0z" fill="#f2ad0b" fill-rule="evenodd" style="--darkreader-inline-fill:#f5b725" transform="translate(27.492 14.996)" data-name="Rectangle 14"/><path d="M.5 0h36.49a.5.5 0 0 1 .5.5V2a.5.5 0 0 1-.5.5H.5A.5.5 0 0 1 0 2V.5A.5.5 0 0 1 .5 0z" fill="#f2ad0b" fill-rule="evenodd" style="--darkreader-inline-fill:#c28a09" transform="translate(0 49.985)" data-name="Rectangle 15"/><path d="M.5 0h28.991a.5.5 0 0 1 .5.5V2a.5.5 0 0 1-.5.5H.5A.5.5 0 0 1 0 2V.5A.5.5 0 0 1 .5 0z" fill="#f2ad0b" fill-rule="evenodd" style="--darkreader-inline-fill:#f5b725" transform="translate(7.498 19.994)" data-name="Rectangle 16"/><path d="M.5 0h18.994a.5.5 0 0 1 .5.5V2a.5.5 0 0 1-.5.5H.5A.5.5 0 0 1 0 2V.5A.5.5 0 0 1 .5 0z" fill="#f2ad0b" fill-rule="evenodd" style="--darkreader-inline-fill:#f5b725" transform="translate(17.495 24.993)" data-name="Rectangle 17"/><path d="M.5 0h21.493a.5.5 0 0 1 .5.5V2a.5.5 0 0 1-.5.5H.5A.5.5 0 0 1 0 2V.5A.5.5 0 0 1 .5 0z" fill="#f2ad0b" fill-rule="evenodd" style="--darkreader-inline-fill:#f5b725" transform="translate(14.996 29.991)" data-name="Rectangle 18"/></g></svg>