<svg xmlns="http://www.w3.org/2000/svg" width="145.874" height="48.631" viewBox="160.959 385.007 145.874 48.631"><g data-name="CompositeLayer"><path d="M52.004 15.972c1.62-.87 2.699-2.459 2.699-4.618 0-3.33-2.7-5.459-7.738-5.459h-9.837V26.89h10.437c5.398 0 8.218-2.1 8.218-5.698 0-2.73-1.53-4.499-3.78-5.219Zm-5.459-7.018c2.7 0 4.229.96 4.229 2.91 0 1.92-1.53 2.879-4.229 2.879h-5.518V8.954h5.518Zm.78 14.876h-6.298v-6.058h6.298c2.94 0 4.529.93 4.529 3.029 0 2.1-1.59 3.03-4.529 3.03ZM61.473 8.235c1.41 0 2.4-1.02 2.4-2.34 0-1.23-1.02-2.159-2.4-2.159s-2.4.99-2.4 2.25c0 1.259 1.02 2.249 2.4 2.249Zm-1.89 18.654h3.75V10.874h-3.75v16.015Zm17.248-3.539c-.57.45-1.32.66-2.1.66-1.44 0-2.219-.84-2.219-2.4v-7.617h4.289v-3h-4.289V7.336h-3.749v3.659h-2.64v2.999h2.64v7.708c0 3.539 2.01 5.398 5.518 5.398 1.35 0 2.7-.36 3.6-1.08l-1.05-2.669ZM96.2 15.972c1.62-.87 2.7-2.459 2.7-4.618 0-3.33-2.7-5.459-7.739-5.459h-9.837V26.89h10.437c5.399 0 8.218-2.1 8.218-5.698 0-2.73-1.53-4.499-3.78-5.219ZM90.74 8.954c2.7 0 4.23.96 4.23 2.91 0 1.92-1.53 2.879-4.23 2.879h-5.518V8.954h5.518Zm.78 14.876h-6.298v-6.058h6.298c2.94 0 4.529.93 4.529 3.029 0 2.1-1.59 3.03-4.529 3.03Zm19.457 3.27c4.978 0 8.547-3.42 8.547-8.218 0-4.799-3.569-8.188-8.547-8.188-4.919 0-8.518 3.389-8.518 8.188 0 4.798 3.6 8.217 8.518 8.217Zm0-3.21c-2.7 0-4.739-1.95-4.739-5.008 0-3.06 2.04-5.009 4.739-5.009 2.729 0 4.768 1.95 4.768 5.009s-2.039 5.008-4.768 5.008Zm15.701-10.677v-2.34h-3.569V26.89h3.75v-7.767c0-3.27 1.799-4.949 4.648-4.949.27 0 .54.03.87.09v-3.569c-2.67 0-4.62.84-5.699 2.52Zm21.059-2.34v2.13c-1.32-1.59-3.3-2.309-5.548-2.309-4.59 0-8.098 3.06-8.098 7.708s3.509 7.767 8.098 7.767c2.159 0 4.048-.69 5.368-2.129v.84c0 3.239-1.56 4.858-5.099 4.858-2.219 0-4.498-.75-5.908-1.919l-1.68 2.82c1.83 1.499 4.8 2.279 7.798 2.279 5.609 0 8.638-2.64 8.638-8.458V10.874h-3.57Zm-4.979 12.117c-2.849 0-4.888-1.859-4.888-4.588 0-2.7 2.04-4.529 4.888-4.529 2.82 0 4.859 1.83 4.859 4.529 0 2.729-2.04 4.588-4.859 4.588Z" fill="#f2ad0b" fill-rule="evenodd" style="--darkreader-inline-fill:#c28a09" transform="translate(123.831 381.271)" data-name="Path 2"/><path d="M42.8 28.765c1.545 0 2.925-.525 3.854-1.545l-.704-.705c-.855.885-1.905 1.26-3.105 1.26-2.534 0-4.438-1.86-4.438-4.349s1.904-4.348 4.438-4.348c1.2 0 2.25.374 3.105 1.244l.704-.705c-.93-1.02-2.309-1.53-3.839-1.53-3.164 0-5.503 2.265-5.503 5.34 0 3.073 2.34 5.338 5.488 5.338Zm11.513-8.038c-1.334 0-2.369.525-2.954 1.44v-4.619h-1.065v11.127h1.065v-4.139c0-1.8 1.065-2.85 2.76-2.85 1.499 0 2.369.856 2.369 2.52v4.469h1.064V24.1c0-2.264-1.32-3.374-3.239-3.374Zm14.542 4.004c0-2.37-1.605-4.004-3.824-4.004-2.22 0-3.854 1.665-3.854 4.004 0 2.34 1.68 4.019 4.139 4.019 1.245 0 2.34-.45 3.044-1.29l-.6-.69c-.6.69-1.454 1.035-2.414 1.035-1.725 0-2.984-1.095-3.104-2.744h6.598c0-.12.015-.24.015-.33Zm-3.824-3.09c1.545 0 2.67 1.08 2.804 2.625h-5.593c.135-1.545 1.26-2.624 2.789-2.624Zm10.76 7.109c1.334 0 2.459-.54 3.089-1.56l-.795-.54c-.54.795-1.38 1.155-2.294 1.155-1.725 0-2.985-1.215-2.985-3.074 0-1.845 1.26-3.074 2.985-3.074.914 0 1.754.375 2.294 1.17l.795-.54c-.63-1.035-1.755-1.56-3.09-1.56-2.354 0-4.063 1.65-4.063 4.004 0 2.354 1.71 4.019 4.064 4.019Zm12.666-.075h1.304l-3.689-4.664 3.374-3.224h-1.32l-4.708 4.304v-7.543h-1.065v11.127h1.065v-2.25l1.86-1.71 3.179 3.96Zm13.605-1.245c-.3.27-.734.405-1.17.405-.884 0-1.364-.51-1.364-1.44v-4.708h2.4v-.9h-2.4v-1.724h-1.064v1.724h-1.41v.9h1.41v4.768c0 1.455.824 2.295 2.309 2.295.615 0 1.244-.18 1.664-.555l-.375-.765Zm7.832-6.703c-1.335 0-2.37.525-2.954 1.44v-4.619h-1.065v11.127h1.065v-4.139c0-1.8 1.064-2.85 2.759-2.85 1.5 0 2.37.856 2.37 2.52v4.469h1.064V24.1c0-2.264-1.32-3.374-3.24-3.374Zm14.541 4.004c0-2.37-1.604-4.004-3.824-4.004-2.219 0-3.854 1.665-3.854 4.004 0 2.34 1.68 4.019 4.14 4.019 1.244 0 2.339-.45 3.043-1.29l-.6-.69c-.6.69-1.454 1.035-2.414 1.035-1.724 0-2.984-1.095-3.104-2.744h6.598c0-.12.015-.24.015-.33Zm-3.824-3.09c1.545 0 2.67 1.08 2.805 2.625h-5.594c.135-1.545 1.26-2.624 2.79-2.624Zm15.03 7.109c2.054 0 3.254-.885 3.254-2.25 0-3.029-5.114-1.424-5.114-3.554 0-.75.63-1.304 2.054-1.304.81 0 1.635.195 2.325.675l.465-.855c-.66-.45-1.77-.735-2.79-.735-2.009 0-3.119.96-3.119 2.25 0 3.119 5.114 1.499 5.114 3.553 0 .78-.615 1.29-2.115 1.29-1.11 0-2.174-.39-2.804-.885l-.48.84c.645.555 1.905.975 3.21.975Zm7.261-9.687c.45 0 .78-.345.78-.78 0-.405-.345-.735-.78-.735-.435 0-.78.345-.78.75 0 .42.345.765.78.765Zm-.54 9.612h1.065v-7.888h-1.064v7.888Zm11.81-7.888v1.515c-.66-1.035-1.8-1.575-3.119-1.575-2.25 0-3.959 1.545-3.959 3.809 0 2.264 1.71 3.839 3.96 3.839 1.289 0 2.414-.525 3.073-1.53v1.005c0 1.95-.914 2.864-2.909 2.864-1.214 0-2.354-.405-3.104-1.08l-.54.81c.825.78 2.235 1.215 3.674 1.215 2.61 0 3.944-1.23 3.944-3.944v-6.928h-1.02Zm-3.014 6.643c-1.74 0-2.984-1.185-2.984-2.894 0-1.71 1.245-2.88 2.984-2.88 1.74 0 3 1.17 3 2.88s-1.26 2.894-3 2.894Zm12.53-6.703c-1.365 0-2.43.555-3 1.515v-1.455h-1.019v7.888h1.065v-4.139c0-1.8 1.064-2.85 2.759-2.85 1.5 0 2.37.856 2.37 2.52v4.469h1.064V24.1c0-2.264-1.32-3.374-3.24-3.374Zm10.388 0c-1.245 0-2.414.39-3.209 1.065l.48.795c.645-.57 1.604-.93 2.624-.93 1.47 0 2.234.735 2.234 2.084v.48h-2.504c-2.264 0-3.044 1.02-3.044 2.234 0 1.365 1.095 2.295 2.88 2.295 1.304 0 2.234-.495 2.713-1.305v1.23h1.02v-4.889c0-2.04-1.155-3.059-3.194-3.059Zm-.375 7.183c-1.26 0-1.994-.57-1.994-1.485 0-.81.495-1.41 2.024-1.41h2.474v1.29c-.42 1.035-1.304 1.605-2.504 1.605Zm7.96.765h1.065V17.548h-1.064v11.127Z" fill="#fff" fill-rule="evenodd" style="--darkreader-inline-fill:#181a1b" transform="translate(124.107 401.98)" data-name="Path 3"/></g></svg>