<?xml version="1.0" encoding="UTF-8"?>
<svg xmlns="http://www.w3.org/2000/svg" xmlns:xlink="http://www.w3.org/1999/xlink" width="28px" height="28px" viewBox="0 0 28 28" version="1.1">
<g id="surface1">
<path style=" stroke:none;fill-rule:nonzero;fill:rgb(30.196078%,71.372549%,67.45098%);fill-opacity:1;" d="M 14 25.667969 L 1.167969 13.125 L 5.832031 2.917969 L 22.167969 2.917969 L 26.832031 13.125 Z M 14 25.667969 "/>
<path style=" stroke:none;fill-rule:nonzero;fill:rgb(100%,100%,100%);fill-opacity:1;" d="M 22.167969 12.832031 C 22.167969 11.996094 19.417969 11.296875 15.75 11.125 L 15.75 9.332031 L 20.417969 9.332031 L 20.417969 5.832031 L 7.582031 5.832031 L 7.582031 9.332031 L 12.25 9.332031 L 12.25 11.125 C 8.582031 11.296875 5.832031 11.996094 5.832031 12.832031 C 5.832031 13.671875 8.582031 14.371094 12.25 14.542969 L 12.25 21 L 15.75 21 L 15.75 14.542969 C 19.417969 14.371094 22.167969 13.671875 22.167969 12.832031 Z M 14 14 C 10.132812 14 7 13.414062 7 12.6875 C 7 12.074219 9.230469 11.5625 12.25 11.417969 L 12.25 13.371094 C 12.808594 13.40625 13.394531 13.417969 14 13.417969 C 14.605469 13.417969 15.191406 13.40625 15.75 13.371094 L 15.75 11.417969 C 18.769531 11.5625 21 12.074219 21 12.6875 C 21 13.414062 17.867188 14 14 14 Z M 14 14 "/>
</g>
</svg>
