<svg xmlns="http://www.w3.org/2000/svg" width="22.724" height="26.051" viewBox="329.276 33.95 22.724 26.051"><g data-name="Group 1121"><g data-name="bell"><path d="M7.424 21a4.158 4.158 0 0 0 7.627 0H7.424Z" fill="#fff" fill-rule="evenodd" style="--darkreader-inline-fill:#e8e6e3" transform="translate(327.13 36.5)" data-name="Path 609"/><path d="m18.842 10.457-1.447-4.769a7.768 7.768 0 0 0-15.063.379L1.208 10.68a4.167 4.167 0 0 0 4.049 5.152h9.597a4.167 4.167 0 0 0 3.988-5.376Z" fill="#fff" fill-rule="evenodd" style="--darkreader-inline-fill:#e8e6e3" transform="translate(328.186 40)" data-name="Path 610"/></g><g data-name="Ellipse 86"><path d="M0 5.9A6 6 0 1 1 0 6z" fill="#f2ad0b" fill-rule="evenodd" style="--darkreader-inline-fill:#f5b725" transform="translate(340 34)"/><path d="M0 5.9A6 6 0 1 1 0 6z" stroke-linejoin="round" stroke-linecap="round" stroke="#13182b" fill="transparent" transform="matrix(.91667 0 0 .91667 340.5 34.496)" style="--darkreader-inline-fill:transparent;--darkreader-inline-stroke:#d4d1cb"/></g></g></svg>