<svg xmlns="http://www.w3.org/2000/svg" width="21.714" height="24.133" viewBox="25.66 0 21.714 24.133"><path d="M26.067 18.1a3.017 3.017 0 0 0 4.12 1.107l.002-.002.448-.258A9.027 9.027 0 0 0 33.5 20.6v.516a3.017 3.017 0 0 0 6.033 0V20.6a9.026 9.026 0 0 0 2.864-1.655l.449.26a3.018 3.018 0 1 0 3.017-5.23l-.447-.257a9.151 9.151 0 0 0 0-3.308l.447-.257a3.018 3.018 0 0 0-3.017-5.229l-.447.258a9.027 9.027 0 0 0-2.866-1.65v-.515a3.017 3.017 0 0 0-6.033 0v.515a9.026 9.026 0 0 0-2.864 1.656l-.45-.26a3.018 3.018 0 1 0-3.016 5.228l.446.257a9.151 9.151 0 0 0 0 3.308l-.446.258a3.023 3.023 0 0 0-1.104 4.12Zm10.45-10.056a4.022 4.022 0 1 1 0 8.044 4.022 4.022 0 0 1 0-8.044Z" fill="#fff" fill-rule="evenodd" style="--darkreader-inline-fill:#e8e6e3" data-name="Path 612"/></svg>