<svg xmlns="http://www.w3.org/2000/svg" width="28.903" height="30.343" viewBox="219 744.541 28.903 30.343"><g data-name="Group 1099"><g data-name="spinner"><path d="M27.313 30.343c-8.379-.002-15.17-6.797-15.167-15.176C12.148 6.788 18.943-.003 27.321 0A15.171 15.171 0 0 1 40.86 8.33a1.896 1.896 0 0 1-3.383 1.713c-2.832-5.61-9.676-7.862-15.286-5.03-5.61 2.832-7.862 9.675-5.03 15.285 2.832 5.61 9.675 7.863 15.285 5.03a11.378 11.378 0 0 0 5.017-5.002 1.897 1.897 0 1 1 3.38 1.72 15.117 15.117 0 0 1-13.529 8.297Z" fill="#bfbfbf" fill-rule="evenodd" style="--darkreader-inline-fill:#c0bab2" transform="translate(206.854 744.54)" data-name="Path 597"/></g><g data-name="spinner"><path d="M20.545 18.553a9.277 9.277 0 1 0-8.283-13.46 1.16 1.16 0 0 0 2.07 1.048 6.958 6.958 0 1 1 .008 6.288 1.16 1.16 0 1 0-2.068 1.052 9.244 9.244 0 0 0 8.273 5.072Z" fill="#bfbfbf" fill-rule="evenodd" style="--darkreader-inline-fill:#c0bab2" transform="translate(213.06 750.435)" data-name="Path 597"/></g><path d="M0 1.862a1.962 1.962 0 1 1 0 .1z" fill="#bfbfbf" fill-rule="evenodd" style="--darkreader-inline-fill:#c0bab2" transform="translate(231.585 757.75)" data-name="Ellipse 67"/></g></svg>