<svg xmlns="http://www.w3.org/2000/svg" width="294.997" height="234.692" viewBox="40 110.141 294.997 234.692"><g data-name="Charts-rafiki"><g data-name="freepik--background-complete--inject-7"><path d="M0 0h7.82v.19H0V0z" fill="#e6e6e6" fill-rule="evenodd" style="--darkreader-inline-fill:#d8d5d0" transform="translate(187.02 317.108)" data-name="Rectangle 108"/><path d="M0 0h71.266v.19H0V0z" fill="#e6e6e6" fill-rule="evenodd" style="--darkreader-inline-fill:#26292b" transform="translate(168.984 322.905)" data-name="Rectangle 112"/><path d="M0 5.187a5.287 5.287 0 1 1 0 .1z" fill="#e6e6e6" fill-rule="evenodd" style="--darkreader-inline-fill:#d8d5d0" transform="translate(183.08 244.823)" data-name="Ellipse 55"/><path d="M218.4 375.69h73.662a5.105 5.105 0 0 1 5.104 5.105H213.31a5.105 5.105 0 0 1 5.09-5.105Z" fill="#f5f5f5" fill-rule="evenodd" style="--darkreader-inline-fill:#1e2021" transform="translate(-53.722 -70.267)" data-name="Path 463"/><path d="M195.383 375.69h13.19a5.105 5.105 0 0 1 5.098 5.104H190.24a5.112 5.112 0 0 1 5.143-5.104Z" fill="#e6e6e6" fill-rule="evenodd" style="--darkreader-inline-fill:#d8d5d0" transform="translate(-48.202 -70.267)" data-name="Path 464"/></g><g data-name="freepik--Shadow--inject-7"><path d="M0 8.512a147.5 8.612 0 1 1 0 .1z" fill="#f5f5f5" fill-rule="evenodd" style="--darkreader-inline-fill:#1e2021" transform="translate(40 327.66)" data-name="Ellipse 63"/></g><g data-name="freepik--Charts--inject-7"><path d="M201.456 193.736c-6.612-23.657 6.257-48.386 29.425-56.546l2.868 9.083c-18.127 6.598-28.19 25.97-23.164 44.595l-9.13 2.868Z" fill="#f2ad0b" fill-rule="evenodd" style="--darkreader-inline-fill:#c28a09" transform="translate(-50.471 -13.203)" data-name="Path 476"/><path d="M225.553 240.225a45.79 45.79 0 0 1-9.89-6.893 46.664 46.664 0 0 1-12.483-18.904l9.083-2.868a37.094 37.094 0 0 0 61.194 13.564l7.022 6.436c-14.418 14.64-36.701 18.155-54.926 8.665Z" fill="#f2ad0b" fill-rule="evenodd" style="--darkreader-inline-fill:#c28a09" transform="translate(-51.298 -30.997)" data-name="Path 477"/><path d="M225.553 240.225a45.79 45.79 0 0 1-9.89-6.893 46.664 46.664 0 0 1-12.483-18.904l9.083-2.868a37.094 37.094 0 0 0 61.194 13.564l7.022 6.436c-14.418 14.64-36.701 18.155-54.926 8.665Z" fill="#fff" fill-rule="evenodd" style="--darkreader-inline-fill:#181a1b" transform="translate(-51.298 -30.997)" data-name="Path 478"/><path d="M285.445 204.238c10.461-12.4 11.65-30.16 2.935-43.845-8.715-13.684-25.311-20.117-40.972-15.881l-2.868-9.129c24.232-6.787 49.48 6.874 57.055 30.871a46.77 46.77 0 0 1-9.083 44.382l-7.067-6.398Z" fill="#f2ad0b" fill-rule="evenodd" style="--darkreader-inline-fill:#c28a09" transform="translate(-61.194 -12.355)" data-name="Path 479"/><path d="M0 0h30.985v112.194H0V0z" fill="#f2ad0b" fill-rule="evenodd" style="--darkreader-inline-fill:#c28a09" transform="translate(133.807 219.71)" data-name="Rectangle 121"/><path d="M0 0h30.985v112.194H0V0z" fill="#fff" fill-rule="evenodd" style="--darkreader-inline-fill:#181a1b" transform="translate(133.807 219.71)" data-name="Rectangle 122"/><path d="M0 0h14.872v112.194H0V0z" fill="#f2ad0b" fill-rule="evenodd" style="--darkreader-inline-fill:#c28a09" transform="translate(164.792 219.71)" data-name="Rectangle 123"/><path d="M0 0h14.872v112.194H0V0z" fill="#fff" fill-rule="evenodd" style="--darkreader-inline-fill:#181a1b" transform="translate(164.792 219.71)" data-name="Rectangle 124"/><path d="M0 0h.791v17.467H0V0z" fill="#263238" fill-rule="evenodd" style="--darkreader-inline-fill:#cac6bf" transform="translate(221.292 261.004)" data-name="Rectangle 125"/><path d="M0 0h.791v7.022H0V0z" fill="#263238" fill-rule="evenodd" style="--darkreader-inline-fill:#cac6bf" transform="translate(221.292 250.734)" data-name="Rectangle 126"/><path d="M0 0h30.985v42.601H0V0z" fill="#f2ad0b" fill-rule="evenodd" style="--darkreader-inline-fill:#c28a09" transform="translate(213.107 289.303)" data-name="Rectangle 127"/><path d="M0 0h30.985v42.601H0V0z" fill="#fbe6b6" fill-rule="evenodd" style="--darkreader-inline-fill:#453104" transform="translate(213.107 289.303)" data-name="Rectangle 128"/><path d="M0 0h14.872v42.601H0V0z" fill="#f2ad0b" fill-rule="evenodd" style="--darkreader-inline-fill:#c28a09" transform="translate(244.091 289.303)" data-name="Rectangle 129"/><path d="M0 0h14.872v42.601H0V0z" fill="#f8d685" fill-rule="evenodd" style="--darkreader-inline-fill:#5b4205" transform="translate(244.091 289.303)" data-name="Rectangle 130"/><path d="M0 0h30.985v135.914H0V0z" fill="#f2ad0b" fill-rule="evenodd" style="--darkreader-inline-fill:#c28a09" transform="translate(173.457 195.99)" data-name="Rectangle 131"/><path d="M0 0h30.985v135.914H0V0z" fill="#f2ad0b" fill-rule="evenodd" style="--darkreader-inline-fill:#c28a09" transform="translate(173.457 195.99)" data-name="Rectangle 132"/><path d="M0 0h14.872v135.914H0V0z" fill="#f2ad0b" fill-rule="evenodd" style="--darkreader-inline-fill:#c28a09" transform="translate(204.442 195.99)" data-name="Rectangle 133"/><path d="M0 0h14.872v135.914H0V0z" fill="#f2ad0b" fill-rule="evenodd" style="--darkreader-inline-fill:#c28a09" transform="translate(204.442 195.99)" data-name="Rectangle 134"/></g><g data-name="freepik--character-2--inject-7"><path d="M345.296 190.24c-1.065 8.414-2.404 16.85-3.598 25.196a30.834 30.834 0 0 1-.662 3.62 24.224 24.224 0 0 1-1.308 3.569 30.429 30.429 0 0 1-3.758 6.086 42.014 42.014 0 0 1-4.671 5.028 33.169 33.169 0 0 1-2.58 2.183c-.882.662-1.757 1.347-2.768 2.009l-2.701-3.37c.631-.7 1.346-1.522 1.993-2.282a67.31 67.31 0 0 0 1.91-2.39 45.944 45.944 0 0 0 3.34-4.952 27.258 27.258 0 0 0 2.38-5.104c.283-.823.5-1.668.647-2.526.133-.9.22-1.807.259-2.716.281-4.32.707-8.596 1.179-12.864A275.927 275.927 0 0 1 336.662 189l8.634 1.24Z" fill="#e58a7b" fill-rule="evenodd" style="--darkreader-inline-fill:#7a2618" transform="translate(-80.026 -25.6)" data-name="Path 483"/><path d="M348.621 185.54c1.94 5.15-7.881 20.311-7.881 20.311l-11.51-6.246a69.725 69.725 0 0 1 6.672-13.472c4.047-6.071 10.597-6.246 12.72-.594Z" fill="#f2ad0b" fill-rule="evenodd" style="--darkreader-inline-fill:#f5b725" transform="translate(-81.456 -23.79)" data-name="Path 484"/><path d="M348.621 185.54c1.94 5.15-7.881 20.311-7.881 20.311l-11.51-6.246a69.725 69.725 0 0 1 6.672-13.472c4.047-6.071 10.597-6.246 12.72-.594Z" fill-rule="evenodd" style="--darkreader-inline-fill:#e8e6e3" transform="translate(-81.456 -23.79)" data-name="Path 485"/><path d="M344.758 181.088s-6.794 17.383-.343 49.745h30.787c.213-4.724-2.761-27.775 1.796-50.034a79.679 79.679 0 0 0-10.3-1.308 113.605 113.605 0 0 0-13.085 0c-2.99.3-5.95.835-8.855 1.597Z" fill="#f2ad0b" fill-rule="evenodd" style="--darkreader-inline-fill:#c28a09" transform="translate(-84.424 -23.279)" data-name="Path 486"/><path d="M344.758 181.088s-6.794 17.383-.343 49.745h30.787c.213-4.724-2.761-27.775 1.796-50.034a79.679 79.679 0 0 0-10.3-1.308 113.605 113.605 0 0 0-13.085 0c-2.99.3-5.95.835-8.855 1.597Z" fill-rule="evenodd" style="--darkreader-inline-fill:#000000" transform="translate(-84.424 -23.279)" data-name="Path 487"/><path d="M348.818 402.728h-5.751L341.53 389.4h5.759l1.529 13.328Z" fill="#e58a7b" fill-rule="evenodd" style="--darkreader-inline-fill:#e48778" transform="translate(-84.4 -73.547)" data-name="Path 488"/><path d="M401.13 402.728h-5.752L390.89 389.4h5.759l4.48 13.328Z" fill="#e58a7b" fill-rule="evenodd" style="--darkreader-inline-fill:#e48778" transform="translate(-96.21 -73.547)" data-name="Path 489"/><path d="M392.952 406h7.014a.495.495 0 0 1 .487.396l1.141 5.12a.852.852 0 0 1-.844 1.019c-2.282-.038-3.903-.168-6.748-.168-1.75 0-5.325.183-7.767.183s-2.731-2.389-1.742-2.61c4.435-.966 6.086-2.282 7.524-3.583.256-.23.59-.358.935-.357Z" fill="#263238" fill-rule="evenodd" style="--darkreader-inline-fill:#cac6bf" transform="translate(-94.552 -77.519)" data-name="Path 490"/><path d="M339.232 406h6.283a.51.51 0 0 1 .495.396l1.133 5.12a.837.837 0 0 1-.829 1.019c-2.282-.038-5.546-.168-8.368-.168-3.332 0-6.208.183-10.118.183-2.366 0-3.043-2.389-2.031-2.61 4.504-.98 8.178-1.087 12.073-3.491a2.67 2.67 0 0 1 1.362-.45Z" fill="#263238" fill-rule="evenodd" style="--darkreader-inline-fill:#cac6bf" transform="translate(-80.526 -77.519)" data-name="Path 491"/><path d="m324.483 246-4.823 4.032 6.337 3.72a5.53 5.53 0 0 0 1.803-6.307L324.483 246Z" fill="#e58a7b" fill-rule="evenodd" style="--darkreader-inline-fill:#e48778" transform="translate(-79.167 -39.237)" data-name="Path 492"/><path d="m341.54 389.41.784 6.87h5.758l-.79-6.87h-5.752Z" fill="#cf6f64" fill-rule="evenodd" style="--darkreader-inline-fill:#d1766c" transform="translate(-84.402 -73.55)" data-name="Path 493"/><path d="M396.649 389.41h-5.759l2.313 6.87h5.758l-2.312-6.87Z" fill="#cf6f64" fill-rule="evenodd" style="--darkreader-inline-fill:#d1766c" transform="translate(-96.21 -73.55)" data-name="Path 494"/><path d="M379.755 194.086c1.005-5.082 2.96-4.2 4.816-1.696a160.682 160.682 0 0 0-1.096 20.296c-1.262-2.153-5.4-10.087-3.72-18.6Z" fill-rule="evenodd" style="--darkreader-inline-fill:#e8e6e3" transform="translate(-93.45 -25.93)" data-name="Path 495"/><path d="M368.795 160.19c-.822 4.207-1.644 11.92 1.3 14.728 0 0-1.148 4.275-8.976 4.275-8.604 0-4.108-4.267-4.108-4.267 4.693-1.126 4.564-4.61 3.75-7.882l8.034-6.854Z" fill="#e58a7b" fill-rule="evenodd" style="--darkreader-inline-fill:#e48778" transform="translate(-87.822 -18.706)" data-name="Path 496"/><path d="m367.075 163.87-4.755 4.055c.203.76.338 1.536.403 2.32 1.796-.259 4.26-2.229 4.45-4.108a6.36 6.36 0 0 0-.098-2.267Z" fill="#cf6f64" fill-rule="evenodd" style="--darkreader-inline-fill:#d1766c" transform="translate(-89.374 -19.587)" data-name="Path 497"/><path d="M354.378 143.087c-2.83 1.202-4.367 9.129-.76 10.962 3.605 1.833 6.123-13.23.76-10.962Z" fill="#263238" fill-rule="evenodd" style="--darkreader-inline-fill:#cac6bf" transform="translate(-86.787 -14.558)" data-name="Path 498"/><path d="M368.382 149.23c-.35 5.698-.267 9.053-3.142 11.982-4.329 4.397-11.373 1.788-12.727-3.903-1.225-5.12-.45-13.586 5.135-15.853a7.79 7.79 0 0 1 10.734 7.774Z" fill="#e58a7b" fill-rule="evenodd" style="--darkreader-inline-fill:#e48778" transform="translate(-86.907 -14.083)" data-name="Path 499"/><path d="M350.112 136.966c3.446-5.226 3.986-2.708 3.933-.22 3.043-2.876 8.665-6.543 11.411-3.195a2.32 2.32 0 0 1 .388 2.624c3.537-.943 7.105-1.21 6.459 2.61-.57 3.377-2.982 4.617-6.36 4.64-6.056.837-20.715.92-15.831-6.459Z" fill="#263238" fill-rule="evenodd" style="--darkreader-inline-fill:#cac6bf" transform="translate(-86.218 -12.013)" data-name="Path 500"/><path d="M371.482 155.626c-3.043 1.24-9.167-9.936.045-11.252 9.213-1.316 4.83 9.251-.045 11.252Z" fill="#263238" fill-rule="evenodd" style="--darkreader-inline-fill:#cac6bf" transform="translate(-90.41 -14.895)" data-name="Path 501"/><path d="M375.14 158.907a5.47 5.47 0 0 1-3.385 2.396c-1.856.41-2.686-1.278-2.077-2.982.548-1.522 2.168-3.583 3.994-3.233a2.442 2.442 0 0 1 1.468 3.819Z" fill="#e58a7b" fill-rule="evenodd" style="--darkreader-inline-fill:#e48778" transform="translate(-91.087 -17.476)" data-name="Path 502"/><path d="M379.796 146.06a3.804 3.804 0 0 0-3.416-1.218s2.974-2.343 3.416 1.217Z" fill="#263238" fill-rule="evenodd" style="--darkreader-inline-fill:#cac6bf" transform="translate(-92.738 -14.853)" data-name="Path 503"/><path d="M340.378 247s-16.196 41.156-15.603 58.714c.647 18.258 11.411 55.161 11.411 55.161h9.753s-3.994-35.846-3.56-53.769c.471-19.551 18.257-60.098 18.257-60.098L340.378 247Z" fill="#f2ad0b" fill-rule="evenodd" style="--darkreader-inline-fill:#c28a09" transform="translate(-80.387 -39.476)" data-name="Path 504"/><path d="m359.783 264.91.936 2.122a279.17 279.17 0 0 0-8.886 26.855c-.266-10.377 1.88-21.818 7.95-28.977Z" fill-rule="evenodd" style="--darkreader-inline-fill:#e8e6e3" transform="translate(-86.86 -43.761)" data-name="Path 505"/><path d="M359.219 247s-3.279 42.084.304 58.577c3.925 18.045 23.066 55.283 23.066 55.283h10.544s-14.105-35.755-16.349-53.647c-2.427-19.392 2.282-60.198 2.282-60.198L359.22 247Z" fill="#f2ad0b" fill-rule="evenodd" style="--darkreader-inline-fill:#c28a09" transform="translate(-88.304 -39.476)" data-name="Path 506"/><path d="M361.823 153.737c0 .464-.251.844-.555.844-.305 0-.548-.38-.548-.844 0-.464.243-.837.548-.837.304 0 .555.335.555.837Z" fill="#263238" fill-rule="evenodd" style="--darkreader-inline-fill:#cac6bf" transform="translate(-88.99 -16.962)" data-name="Path 507"/><path d="M354.923 153.737c0 .464-.251.844-.548.844-.296 0-.555-.38-.555-.844 0-.464.251-.837.555-.837.305 0 .548.335.548.837Z" fill="#263238" fill-rule="evenodd" style="--darkreader-inline-fill:#cac6bf" transform="translate(-87.34 -16.962)" data-name="Path 508"/><path d="M356.764 154.26a16.644 16.644 0 0 1-2.214 3.963c.64.46 1.45.614 2.214.419v-4.382Z" fill="#df5753" fill-rule="evenodd" style="--darkreader-inline-fill:#e15f5c" transform="translate(-87.515 -17.287)" data-name="Path 509"/><path d="M359.197 161.152a.137.137 0 1 1 0-.273 3.674 3.674 0 0 0 2.997-1.438.137.137 0 0 1 .19-.038.137.137 0 0 1 .038.182 3.865 3.865 0 0 1-3.225 1.567Z" fill="#263238" fill-rule="evenodd" style="--darkreader-inline-fill:#cac6bf" transform="translate(-88.594 -18.512)" data-name="Path 510"/><path d="M363.532 151.237a.281.281 0 0 1-.213-.106 2.168 2.168 0 0 0-1.75-.913.266.266 0 0 1-.29-.259.274.274 0 0 1 .252-.289 2.724 2.724 0 0 1 2.221 1.126.281.281 0 0 1-.053.388.334.334 0 0 1-.167.053Z" fill="#263238" fill-rule="evenodd" style="--darkreader-inline-fill:#cac6bf" transform="translate(-89.125 -16.19)" data-name="Path 511"/><path d="M352.164 150.987a.342.342 0 0 1-.122 0 .266.266 0 0 1-.122-.366 2.685 2.685 0 0 1 1.955-1.521.274.274 0 0 1 .069.54 2.176 2.176 0 0 0-1.522 1.232.266.266 0 0 1-.258.115Z" fill="#263238" fill-rule="evenodd" style="--darkreader-inline-fill:#cac6bf" transform="translate(-86.878 -16.053)" data-name="Path 512"/><path d="M386.906 187.15a48.258 48.258 0 0 1 1.309 3.043c.395 1.027.76 2 1.164 3.043.76 2.023 1.392 4.077 1.97 6.17a73.189 73.189 0 0 1 1.453 6.405l.274 1.636.198 1.673c.076.556.106 1.126.152 1.697l.053.852v1.33a11.898 11.898 0 0 1-1.278 4.292 26.718 26.718 0 0 1-1.833 3.103 49.65 49.65 0 0 1-4.131 5.173 81.5 81.5 0 0 1-9.304 8.756l-3.043-3.042c2.488-3.18 4.968-6.467 7.227-9.73a55.203 55.203 0 0 0 3.043-4.93c.424-.76.793-1.552 1.103-2.366.226-.52.355-1.077.38-1.643 0 0 0 .046 0 0v-.175l-.106-.685c-.069-.464-.13-.92-.236-1.384l-.274-1.392-.327-1.4a81.925 81.925 0 0 0-1.597-5.622 143.843 143.843 0 0 0-1.948-5.6 170.798 170.798 0 0 0-2.16-5.461l7.911-3.743Z" fill="#e58a7b" fill-rule="evenodd" style="--darkreader-inline-fill:#7a2618" transform="translate(-92.142 -25.157)" data-name="Path 513"/><path d="M392.831 406.9a1.72 1.72 0 0 1-1.103-.297.821.821 0 0 1-.281-.761.426.426 0 0 1 .228-.38c.646-.328 2.495.813 2.708.943.046.03.07.083.06.137a.145.145 0 0 1-.106.114 7.067 7.067 0 0 1-1.506.243Zm-.852-1.195a.312.312 0 0 0-.175.038c-.038 0-.084.053-.091.16a.586.586 0 0 0 .19.494c.643.29 1.371.325 2.039.1a5.522 5.522 0 0 0-1.963-.792Z" fill="#f2ad0b" fill-rule="evenodd" style="--darkreader-inline-fill:#f5b725" transform="translate(-96.34 -77.376)" data-name="Path 514"/><path d="M394.676 406.285h-.06c-.602-.327-1.75-1.582-1.629-2.23a.449.449 0 0 1 .434-.357.76.76 0 0 1 .578.175c.67.548.806 2.207.814 2.283a.145.145 0 0 1-.06.121.13.13 0 0 1-.077.008Zm-1.156-2.358h-.069c-.175 0-.19.099-.198.137-.068.38.662 1.33 1.256 1.78a3.302 3.302 0 0 0-.677-1.803.48.48 0 0 0-.312-.114Z" fill="#f2ad0b" fill-rule="evenodd" style="--darkreader-inline-fill:#f5b725" transform="translate(-96.709 -76.967)" data-name="Path 515"/><path d="M339.93 406.91a2.153 2.153 0 0 1-1.393-.358.76.76 0 0 1-.259-.662.457.457 0 0 1 .221-.365c.708-.388 3.043.76 3.279.92a.137.137 0 0 1-.038.26c-.596.121-1.202.19-1.81.205Zm-1.043-1.195a.472.472 0 0 0-.251.053.144.144 0 0 0-.084.145.487.487 0 0 0 .16.434c.358.32 1.309.372 2.571.16a7.427 7.427 0 0 0-2.396-.792Z" fill="#f2ad0b" fill-rule="evenodd" style="--darkreader-inline-fill:#f5b725" transform="translate(-83.62 -77.386)" data-name="Path 516"/><path d="M342.162 406.285a.091.091 0 0 1-.061 0c-.692-.312-2.07-1.522-1.963-2.206 0-.152.13-.343.51-.38.275-.028.55.057.76.235.761.601.89 2.153.89 2.214.008.05-.012.1-.053.13a.145.145 0 0 1-.083.007Zm-1.37-2.358h-.083c-.244 0-.259.121-.267.152-.06.388.875 1.37 1.583 1.795a3.188 3.188 0 0 0-.761-1.772.708.708 0 0 0-.472-.175Z" fill="#f2ad0b" fill-rule="evenodd" style="--darkreader-inline-fill:#f5b725" transform="translate(-84.065 -76.967)" data-name="Path 517"/><path d="m373.865 244.05-5.645 1.521 4.679 5.676s4.526-2.351 3.552-4.884l-2.586-2.313Z" fill="#e58a7b" fill-rule="evenodd" style="--darkreader-inline-fill:#e48778" transform="translate(-90.785 -38.77)" data-name="Path 518"/><path d="m364.38 249.839 4.085 4.503 3.515-2.647-4.679-5.675-2.921 3.819Z" fill="#e58a7b" fill-rule="evenodd" style="--darkreader-inline-fill:#e48778" transform="translate(-89.866 -39.242)" data-name="Path 519"/><path d="M387.41 395.748h13.785v-3.712l-15.405-.236 1.62 3.948Z" fill="#f2ad0b" fill-rule="evenodd" style="--darkreader-inline-fill:#f5b725" transform="translate(-94.989 -74.121)" data-name="Path 520"/><path d="M387.41 395.748h13.785v-3.712l-15.405-.236 1.62 3.948Z" fill-rule="evenodd" style="--darkreader-inline-fill:#e8e6e3" transform="translate(-94.989 -74.121)" data-name="Path 521"/><path d="M336.36 395.748h13.785v-3.75l-15.405-.198 1.62 3.948Z" fill="#f2ad0b" fill-rule="evenodd" style="--darkreader-inline-fill:#f5b725" transform="translate(-82.775 -74.121)" data-name="Path 522"/><path d="M336.36 395.748h13.785v-3.75l-15.405-.198 1.62 3.948Z" fill-rule="evenodd" style="--darkreader-inline-fill:#e8e6e3" transform="translate(-82.775 -74.121)" data-name="Path 523"/><path d="M386.817 181.567c5.135 1.978 10.27 20.19 10.27 20.19l-13.694 5.386s-4.085-9.418-5.477-16.417c-1.43-7.341 3.081-11.396 8.9-9.16Z" fill="#f2ad0b" fill-rule="evenodd" style="--darkreader-inline-fill:#f5b725" transform="translate(-93.041 -23.674)" data-name="Path 524"/><path d="M386.817 181.567c5.135 1.978 10.27 20.19 10.27 20.19l-13.694 5.386s-4.085-9.418-5.477-16.417c-1.43-7.341 3.081-11.396 8.9-9.16Z" fill-rule="evenodd" style="--darkreader-inline-fill:#e8e6e3" transform="translate(-93.041 -23.674)" data-name="Path 525"/><path d="M316.417 213.876a25.705 25.705 0 0 0 .418 15.496 25.6 25.6 0 0 0 8.323 11.807c10.641 8.425 25.991 7.166 35.117-2.88 9.127-10.048 8.91-25.448-.496-35.233a25.508 25.508 0 0 0-11.35-6.847 25.911 25.911 0 0 0-23.431 4.694c-.59.476-1.154.984-1.689 1.521a25.72 25.72 0 0 0-6.892 11.442Z" fill="#f2ad0b" fill-rule="evenodd" style="--darkreader-inline-fill:#c28a09" transform="translate(-78.152 -27.082)" data-name="Path 526"/><path d="M316.417 213.876a25.705 25.705 0 0 0 .418 15.496 25.6 25.6 0 0 0 8.323 11.807c10.641 8.425 25.991 7.166 35.117-2.88 9.127-10.048 8.91-25.448-.496-35.233a25.508 25.508 0 0 0-11.35-6.847 25.911 25.911 0 0 0-23.431 4.694c-.59.476-1.154.984-1.689 1.521a25.72 25.72 0 0 0-6.892 11.442Z" fill-rule="evenodd" style="--darkreader-inline-fill:#000000" transform="translate(-78.152 -27.082)" data-name="Path 527"/><path d="m361.395 204.21-18.562 17.915-7.113 24.8a25.797 25.797 0 0 0 25.675-42.715Z" fill="#f2ad0b" fill-rule="evenodd" style="--darkreader-inline-fill:#c28a09" transform="translate(-83.01 -29.238)" data-name="Path 528"/><path d="m361.395 204.21-18.562 17.915-7.113 24.8a25.797 25.797 0 0 0 25.675-42.715Z" fill="#fff" fill-rule="evenodd" style="--darkreader-inline-fill:#181a1b" transform="translate(-83.01 -29.238)" data-name="Path 529"/><g data-name="Group 234"><path d="m337.27 219.644 18.562-17.923a25.797 25.797 0 0 0-43.362 10.818l24.8 7.105Z" fill="#f2ad0b" fill-rule="evenodd" style="--darkreader-inline-fill:#c28a09" transform="translate(-77.447 -26.757)" data-name="Path 530"/><path d="m337.27 219.644 18.562-17.923a25.797 25.797 0 0 0-43.362 10.818l24.8 7.105Z" fill="#fff" fill-rule="evenodd" style="--darkreader-inline-fill:#181a1b" transform="translate(-77.447 -26.757)" data-name="Path 531"/></g><path d="m319.14 254.73 5.591 1.765 1.119-1.445-6.337-3.72-.373 3.4Z" fill="#e58a7b" fill-rule="evenodd" style="--darkreader-inline-fill:#e48778" transform="translate(-79.042 -40.512)" data-name="Path 532"/><path d="m336.957 225.525-24.793-7.105c-3.92 13.694 3.996 27.975 17.688 31.905l7.105-24.8Z" fill="#f2ad0b" fill-rule="evenodd" style="--darkreader-inline-fill:#f5b725" transform="translate(-77.133 -32.638)" data-name="Path 533"/><path d="m336.957 225.525-24.793-7.105c-3.92 13.694 3.996 27.975 17.688 31.905l7.105-24.8Z" fill="#f2ac0a" fill-rule="evenodd" style="--darkreader-inline-fill:#f6b725" transform="translate(-77.133 -32.638)" data-name="Path 534"/></g><g data-name="freepik--character-1--inject-7"><path d="M151.835 180.427a108.678 108.678 0 0 0-4.078 4.374c-1.316 1.506-2.64 3.043-3.88 4.618a93.344 93.344 0 0 0-3.537 4.83l-.822 1.24-.76 1.256c-.26.418-.503.844-.761 1.27l-.632 1.164a6.535 6.535 0 0 0-.433 2.077c-.061.917-.061 1.837 0 2.754.142 1.973.396 3.936.76 5.88.343 1.993.761 3.994 1.256 5.98.494 1.985.981 4.009 1.521 5.972l-2.929 1.095a85.632 85.632 0 0 1-4.435-11.974 48.866 48.866 0 0 1-1.392-6.413 25.762 25.762 0 0 1-.243-3.492c-.021-1.377.21-2.746.684-4.04.183-.44.282-.623.403-.882l.358-.76c.236-.503.487-.997.76-1.476l.761-1.453.837-1.415a61.41 61.41 0 0 1 3.644-5.394 86.123 86.123 0 0 1 4.047-5.036c1.415-1.62 2.853-3.172 4.489-4.732l4.382 4.557Z" fill="#e58a7b" fill-rule="evenodd" style="--darkreader-inline-fill:#7a2618" transform="translate(-34.14 -22.458)" data-name="Path 535"/><path d="m141.443 234.67 5.204 1.521-3.462 3.515s-3.75-1.156-4.275-3.712l2.533-1.324Z" fill="#e58a7b" fill-rule="evenodd" style="--darkreader-inline-fill:#e48778" transform="translate(-35.92 -36.526)" data-name="Path 536"/><path d="m151.148 240.711-.882 3.355-5.736-3.849 3.461-3.507 3.157 4.001Z" fill="#e58a7b" fill-rule="evenodd" style="--darkreader-inline-fill:#e48778" transform="translate(-37.265 -37.014)" data-name="Path 537"/><path d="m92 363.347 4.26 4.572 11.563-8.277-4.267-4.572L92 363.347Z" fill="#e58a7b" fill-rule="evenodd" style="--darkreader-inline-fill:#e48778" transform="translate(-24.697 -65.333)" data-name="Path 538"/><path d="m164.073 387.826-1.02 7.866-6.093-1.019.943-7.303 6.17.456Z" fill="#cf6f64" fill-rule="evenodd" style="--darkreader-inline-fill:#d1766c" transform="translate(-40.24 -73.061)" data-name="Path 539"/><path d="m105.637 355.07 4.26 4.58-4.785 3.423-4.412-4.473 4.937-3.53Z" fill="#cf6f64" fill-rule="evenodd" style="--darkreader-inline-fill:#d1766c" transform="translate(-26.779 -65.333)" data-name="Path 540"/><path d="M161.431 222.265s-12.05 40.357-17.938 63.62c-6.208 24.519-35.854 44.511-35.854 44.511l-6.329-6.291s19.817-16.736 25.865-39.612c12.218-46.458 6.345-56.295 16.082-65.743l18.174 3.515Z" fill="#f2ad0b" fill-rule="evenodd" style="--darkreader-inline-fill:#c28a09" transform="translate(-26.924 -32.717)" data-name="Path 541"/><path d="m96.966 369.005-3.552-6.086a.494.494 0 0 0-.616-.22l-5.067 2.039a.997.997 0 0 0-.426 1.415c1.278 2.092 1.993 3.043 3.56 5.713.966 1.643 2.206 4.138 3.53 6.405 1.324 2.267 3.583 1.11 3.226.053-1.598-4.754-.761-6.131-.45-8.246.057-.37-.015-.75-.205-1.073Z" fill="#263238" fill-rule="evenodd" style="--darkreader-inline-fill:#cac6bf" transform="translate(-23.54 -67.15)" data-name="Path 543"/><path d="m107.856 363.47-7.896-7.859 2.145-2.381 9.616 8.186-3.865 2.054Z" fill="#f5f5f5" fill-rule="evenodd" style="--darkreader-inline-fill:#e2dfdb" transform="translate(-26.601 -64.893)" data-name="Path 544"/><path d="M170.295 234.353c-7.904 6.086-8.436 29.335-8.254 39.833 4.025-14.675 8.78-31.008 11.556-40.449-.76-.654-1.848-.51-3.302.616Z" fill-rule="evenodd" style="--darkreader-inline-fill:#000000" transform="translate(-41.449 -36.21)" data-name="Path 545"/><path d="M101.18 374.534a.759.759 0 0 1-.22-.038c-.761-.229-1.286-1.606-1.522-2.404a.152.152 0 0 1 .046-.16.137.137 0 0 1 .16 0c.227.114 2.228 1.156 2.281 1.947a.502.502 0 0 1-.197.45.89.89 0 0 1-.548.205Zm-1.362-2.184c.373 1.058.822 1.742 1.225 1.872a.54.54 0 0 0 .51-.137.19.19 0 0 0 .091-.19c-.046-.396-1.02-1.103-1.826-1.545Z" fill="#f2ad0b" fill-rule="evenodd" style="--darkreader-inline-fill:#f5b725" transform="translate(-26.475 -69.361)" data-name="Path 546"/><path d="M101.381 372.399a4.443 4.443 0 0 1-1.902-.434.16.16 0 0 1 0-.258c.069 0 1.567-.906 2.42-.624a.76.76 0 0 1 .494.441c.12.21.08.475-.099.64-.269.18-.59.262-.913.235Zm-1.521-.57c.7.28 1.91.395 2.229.114.053-.046.098-.122 0-.297a.502.502 0 0 0-.32-.29 3.34 3.34 0 0 0-1.91.472Z" fill="#f2ad0b" fill-rule="evenodd" style="--darkreader-inline-fill:#f5b725" transform="translate(-26.47 -69.151)" data-name="Path 547"/><path d="m155.8 401.525 6.17.456 1.825-14.165-6.162-.456-1.833 14.165Z" fill="#e58a7b" fill-rule="evenodd" style="--darkreader-inline-fill:#e48778" transform="translate(-39.962 -73.059)" data-name="Path 548"/><path d="M180.475 223.897s1.522 48.832-1.91 67.227c-3.59 19.132-14.522 62.647-14.522 62.647l-8.893-1.15s5.63-43.962 8.01-62.966c2.61-20.722-.806-69.265-.806-69.265l18.121 3.507Z" fill="#f2ad0b" fill-rule="evenodd" style="--darkreader-inline-fill:#c28a09" transform="translate(-39.806 -33.11)" data-name="Path 549"/><path d="M197.434 148.4c-.084.495.114.937.434 1.005.32.068.646-.29.76-.76.114-.472-.114-.936-.433-.997-.32-.061-.677.266-.761.753Z" fill="#263238" fill-rule="evenodd" style="--darkreader-inline-fill:#cac6bf" transform="translate(-49.918 -15.704)" data-name="Path 551"/><path d="m198.2 147.594 1.24-.114s-.76.806-1.24.114Z" fill="#263238" fill-rule="evenodd" style="--darkreader-inline-fill:#cac6bf" transform="translate(-50.106 -15.665)" data-name="Path 552"/><path d="M197.7 149.37a13.617 13.617 0 0 0 1.24 3.461 2.176 2.176 0 0 1-1.81 0l.57-3.461Z" fill="#df5753" fill-rule="evenodd" style="--darkreader-inline-fill:#e15f5c" transform="translate(-49.85 -16.117)" data-name="Path 553"/><path d="M198.331 145.317a.289.289 0 0 1-.266-.175 2.45 2.45 0 0 0-1.62-1.423.289.289 0 0 1-.236-.335.297.297 0 0 1 .342-.235 2.99 2.99 0 0 1 2.046 1.757c.065.147.001.32-.144.388l-.122.023Z" fill="#263238" fill-rule="evenodd" style="--darkreader-inline-fill:#cac6bf" transform="translate(-49.629 -14.628)" data-name="Path 554"/><path d="M175.917 154c.115 3.728-.266 10.453-3.187 12.362 0 0 .38 3.804 7.098 5.135 7.386 1.43 4.138-2.96 4.138-2.96-3.88-1.741-3.279-4.693-2.115-7.348L175.917 154Z" fill="#e58a7b" fill-rule="evenodd" style="--darkreader-inline-fill:#e48778" transform="translate(-44.012 -17.225)" data-name="Path 555"/><path d="M200.673 180.22a111.74 111.74 0 0 0 4.846 3.5c1.651 1.118 3.34 2.282 5.06 3.293a147.106 147.106 0 0 0 5.21 2.944 55.203 55.203 0 0 0 5.364 2.42c.16.06.106 0 .144.053h.099c.098.014.198.014.297 0 .304.001.607-.03.905-.091.807-.198 1.59-.483 2.335-.852a34.433 34.433 0 0 0 4.922-3.043 72.609 72.609 0 0 0 4.778-3.713c1.56-1.308 3.111-2.67 4.602-4.024l2.283 2.092a70.538 70.538 0 0 1-8.703 9.425 35.407 35.407 0 0 1-5.394 3.972 16.66 16.66 0 0 1-3.423 1.521 8.894 8.894 0 0 1-2.168.365 6.528 6.528 0 0 1-1.263-.053 5.399 5.399 0 0 1-.67-.122c-.197-.053-.51-.137-.593-.175a62.067 62.067 0 0 1-11.898-5.37c-1.856-1.08-3.69-2.2-5.47-3.401-1.78-1.202-3.484-2.427-5.226-3.85l3.963-4.891Z" fill="#e58a7b" fill-rule="evenodd" style="--darkreader-inline-fill:#7a2618" transform="translate(-49.75 -23.498)" data-name="Path 556"/><path d="m252 180.153 1.81-4.663 3.804 3.804s-1.803 3.469-4.39 3.476L252 180.153Z" fill="#e58a7b" fill-rule="evenodd" style="--darkreader-inline-fill:#e48778" transform="translate(-62.978 -22.367)" data-name="Path 557"/><path d="m258.135 173.72 3.614 1.134-3.53 4.009-3.819-3.797 3.735-1.346Z" fill="#e58a7b" fill-rule="evenodd" style="--darkreader-inline-fill:#e48778" transform="translate(-63.553 -21.943)" data-name="Path 558"/><path d="M161.775 405.42h-6.93a.502.502 0 0 0-.502.426l-.936 5.485a.966.966 0 0 0 .966 1.095c2.42-.038 3.583-.182 6.634-.182 1.871 0 5.751.198 8.368.198s2.792-2.564 1.72-2.8c-4.808-1.035-6.672-2.472-8.27-3.842a1.567 1.567 0 0 0-1.05-.38Z" fill="#263238" fill-rule="evenodd" style="--darkreader-inline-fill:#cac6bf" transform="translate(-39.387 -77.38)" data-name="Path 559"/><path d="M175.975 140.376c-.616 6.086-1.012 8.62 1.522 12.294 3.803 5.515 11.41 5.173 13.868-.54 2.183-5.136 2.838-14.204-2.678-17.733a8.163 8.163 0 0 0-12.712 5.979Z" fill="#e58a7b" fill-rule="evenodd" style="--darkreader-inline-fill:#e48778" transform="translate(-44.679 -12.197)" data-name="Path 560"/><path d="M175.274 153.004c-2.89-1.18-5.591-5.835-5.485-13.115.107-7.28 5.53-11.503 15.215-8.437 9.684 3.066-.282 25.416-9.73 21.552Z" fill="#263238" fill-rule="evenodd" style="--darkreader-inline-fill:#cac6bf" transform="translate(-43.308 -11.589)" data-name="Path 561"/><path d="M187.78 132.538c2.853-1.118 9.167.267 9.167 6.208l-6.14 4.983-3.027-11.19Z" fill="#263238" fill-rule="evenodd" style="--darkreader-inline-fill:#cac6bf" transform="translate(-47.613 -12.005)" data-name="Path 562"/><path d="M186.73 132.253c3.804-.22 5.28-.206 8.726.76-2.267-2.723-6.512-1.825-8.726-.76Z" fill="#263238" fill-rule="evenodd" style="--darkreader-inline-fill:#cac6bf" transform="translate(-47.362 -11.773)" data-name="Path 563"/><path d="M191.05 146.464a5.56 5.56 0 0 0 .662 3.263c.761 1.4 1.91 1.21 2.336.076.388-1.02.456-2.974-.609-4.024-1.065-1.05-2.206-.57-2.388.685Z" fill="#e58a7b" fill-rule="evenodd" style="--darkreader-inline-fill:#e48778" transform="translate(-48.389 -15.12)" data-name="Path 564"/><path d="M169.704 132.587c2.206 1.354 9.707.236 11.328-2.647 1.62-2.883-3.979-7.706-9.053-7.531-5.074.174-7.19 7.15-2.275 10.178Z" fill="#f2ad0b" fill-rule="evenodd" style="--darkreader-inline-fill:#f5b725" transform="translate(-42.622 -9.665)" data-name="Path 565"/><path d="m165.342 394.958-12.682-1.636.16-3.012 13.792.6-1.27 4.048Z" fill="#f5f5f5" fill-rule="evenodd" style="--darkreader-inline-fill:#e2dfdb" transform="translate(-39.21 -73.765)" data-name="Path 566"/><path d="M166.784 406.348a10.245 10.245 0 0 1-1.94-.22.137.137 0 0 1-.114-.122.152.152 0 0 1 .076-.152c.281-.145 2.776-1.408 3.522-.982a.449.449 0 0 1 .236.388.806.806 0 0 1-.282.708c-.44.297-.97.432-1.498.38Zm-1.453-.426c1.361.229 2.373.168 2.761-.167a.555.555 0 0 0 .183-.472.183.183 0 0 0-.092-.16c-.403-.228-1.825.312-2.852.8Z" fill="#f2ad0b" fill-rule="evenodd" style="--darkreader-inline-fill:#f5b725" transform="translate(-42.098 -77.228)" data-name="Path 567"/><path d="M164.874 405.679a.205.205 0 0 1-.091 0 .152.152 0 0 1-.053-.137c0-.106.296-2.632 1.673-2.632h.122c.396.038.51.243.54.403.114.7-1.385 2.039-2.13 2.374Zm1.522-2.495c-.89 0-1.24 1.46-1.355 2.092.761-.464 1.788-1.522 1.72-1.932 0 0 0-.13-.282-.16h-.083Z" fill="#f2ad0b" fill-rule="evenodd" style="--darkreader-inline-fill:#f5b725" transform="translate(-42.098 -76.78)" data-name="Path 568"/><path d="M156.058 169.337c-4.283.197-8.368 7.295-8.368 7.295l5.652 11.548s7.66-6.383 7.76-12.659c.084-4.077-.837-6.375-5.044-6.184Z" fill="#f2ad0b" fill-rule="evenodd" style="--darkreader-inline-fill:#f5b725" transform="translate(-38.021 -20.892)" data-name="Path 569"/><path d="M156.058 169.337c-4.283.197-8.368 7.295-8.368 7.295l5.652 11.548s7.66-6.383 7.76-12.659c.084-4.077-.837-6.375-5.044-6.184Z" fill="#fff" fill-rule="evenodd" style="--darkreader-inline-fill:#e8e6e3" transform="translate(-38.021 -20.892)" data-name="Path 570"/><path d="m156.41 206.91 24.74 4.793c11.684-34.416 8.892-35.526 8.892-35.526a51.587 51.587 0 0 0-5.614-2.61l-.342-.129c-1.575-.57-1.91-.662-4.032-1.278-3.644-.86-7.037-1.56-11.236-2.168l-.8-.114a91.43 91.43 0 0 0-2.243-.244c-.487-.053-.982-.083-1.446-.121l-1.597-.084c-2.709-.137-4.64-.091-4.64-.091 1.414 21.475.38 27.645-1.682 37.573Z" fill="#f2ad0b" fill-rule="evenodd" style="--darkreader-inline-fill:#c28a09" transform="translate(-40.108 -20.893)" data-name="Path 571"/><path d="m156.41 206.91 24.74 4.793c11.684-34.416 8.892-35.526 8.892-35.526a51.587 51.587 0 0 0-5.614-2.61l-.342-.129c-1.575-.57-1.91-.662-4.032-1.278-3.644-.86-7.037-1.56-11.236-2.168l-.8-.114a91.43 91.43 0 0 0-2.243-.244c-.487-.053-.982-.083-1.446-.121l-1.597-.084c-2.709-.137-4.64-.091-4.64-.091 1.414 21.475.38 27.645-1.682 37.573Z" fill="#fff" fill-rule="evenodd" style="--darkreader-inline-fill:#181a1b" transform="translate(-40.108 -20.893)" data-name="Path 572"/><path d="M192.69 189.21c.981 1.932 2.145 4.496 3.705 6.268.449-1.627.821-3.042 1.14-4.359l-4.845-1.909Z" fill="#f2ad0b" fill-rule="evenodd" style="--darkreader-inline-fill:#f5b725" transform="translate(-48.788 -25.65)" data-name="Path 573"/><path d="M155.818 177.575c6.17-4.877 7.47-9.41 6.61-13.374-.86-3.964-1.848-10.879-1.14-13.191.707-2.313 3.172-7.113 2.67-11.214-.503-4.1-1.674-9.798-.548-12.263s4.701-3.925 1.803-7.425c-1.408-1.696-7.372-1.955-8.931 2.777-1.56 4.732-7.965 6.778-10.483 7.25-2.518.471-6.953 3.301-7.722 7.912-.768 4.61-3.864 6.428-8.117 8.794-4.252 2.366-10.369 11.639-7.934 19.87 3.286 11.267 24.602 18.151 33.792 10.864Z" fill="#263238" fill-rule="evenodd" style="--darkreader-inline-fill:#1e282d" transform="translate(-31.748 -8.849)" data-name="Path 574"/><path d="M190.45 175.5c1.917-1.52 10.17 3.485 12.696 5.577l-1.475 10.848s-11.792-4.884-12.598-8.223c-.867-3.477-.145-7.037 1.377-8.201Z" fill="#f2ad0b" fill-rule="evenodd" style="--darkreader-inline-fill:#f5b725" transform="translate(-47.833 -22.302)" data-name="Path 575"/><path d="M190.45 175.5c1.917-1.52 10.17 3.485 12.696 5.577l-1.475 10.848s-11.792-4.884-12.598-8.223c-.867-3.477-.145-7.037 1.377-8.201Z" fill="#fff" fill-rule="evenodd" style="--darkreader-inline-fill:#e8e6e3" transform="translate(-47.833 -22.302)" data-name="Path 576"/><path d="m155.755 216.7-1.476 1.986c-.114.152.06.365.342.426l25.949 5.021c.22.046.426 0 .464-.167l.586-2.16c.038-.145-.13-.313-.373-.358l-25.059-4.854a.441.441 0 0 0-.433.107Z" fill="#f2ad0b" fill-rule="evenodd" style="--darkreader-inline-fill:#f5b725" transform="translate(-39.59 -32.197)" data-name="Path 577"/><path d="m159.776 220.241-.67-.129c-.129 0-.22-.114-.197-.198l.76-2.8c0-.083.153-.129.29-.106l.67.13c.128 0 .22.114.197.197l-.76 2.8c-.024.083-.153.13-.29.106Z" fill="#f2ad0b" fill-rule="evenodd" style="--darkreader-inline-fill:#f5b725" transform="translate(-40.705 -32.3)" data-name="Path 578"/><path d="m182.054 224.604-.677-.13c-.13 0-.22-.114-.198-.197l.76-2.8c0-.076.153-.122.29-.099l.67.13c.136 0 .227.114.205.197l-.761 2.8c-.03.083-.16.13-.29.099Z" fill="#f2ad0b" fill-rule="evenodd" style="--darkreader-inline-fill:#f5b725" transform="translate(-46.033 -33.345)" data-name="Path 579"/><path d="m159.776 220.241-.67-.129c-.129 0-.22-.114-.197-.198l.76-2.8c0-.083.153-.129.29-.106l.67.13c.128 0 .22.114.197.197l-.76 2.8c-.024.083-.153.13-.29.106Z" fill="#1b2327" fill-rule="evenodd" style="--darkreader-inline-fill:#d3cfca" transform="translate(-40.705 -32.3)" data-name="Path 580"/><path d="m182.054 224.604-.677-.13c-.13 0-.22-.114-.198-.197l.76-2.8c0-.076.153-.122.29-.099l.67.13c.136 0 .227.114.205.197l-.761 2.8c-.03.083-.16.13-.29.099Z" fill="#1b2327" fill-rule="evenodd" style="--darkreader-inline-fill:#d3cfca" transform="translate(-46.033 -33.345)" data-name="Path 581"/></g></g></svg>