<svg xmlns="http://www.w3.org/2000/svg" width="283.757" height="226.999" viewBox="42.51 132.632 283.757 226.999"><g data-name="Account-rafiki"><g data-name="freepik--background-complete--inject-37"><path d="M0 0h6.207v.179H0V0z" fill="#ebebeb" fill-rule="evenodd" style="--darkreader-inline-fill:#dbd8d4" transform="translate(239.59 340.862)" data-name="Rectangle 25"/><path d="M0 0h151.269v7.22H0V0z" fill="#e6e6e6" fill-rule="evenodd" style="--darkreader-inline-fill:#26292b" transform="translate(61.48 205.963)" data-name="Rectangle 33"/><path d="M0 0h153.34v7.22H0V0z" fill="#f0f0f0" fill-rule="evenodd" style="--darkreader-inline-fill:#202325" transform="translate(69.766 205.963)" data-name="Rectangle 34"/><path d="M129.5 239.89h53.296l7.729 31.476H137.22L129.5 239.89Z" fill="#e6e6e6" fill-rule="evenodd" style="--darkreader-inline-fill:#26292b" transform="translate(-27.78 -14.25)" data-name="Path 209"/><path d="m140.31 283.96.221 1.736h53.297l-.214-1.736H140.31Z" fill="#e6e6e6" fill-rule="evenodd" style="--darkreader-inline-fill:#26292b" transform="translate(-30.868 -26.843)" data-name="Path 210"/><path d="M131.8 239.89h53.296l7.728 31.476h-53.303L131.8 239.89Z" fill="#f0f0f0" fill-rule="evenodd" style="--darkreader-inline-fill:#202325" transform="translate(-28.437 -14.25)" data-name="Path 211"/><path d="M141.381 270.498 134.36 241.9h50.34l7.02 28.598h-50.339Z" fill="#fff" fill-rule="evenodd" style="--darkreader-inline-fill:#181a1b" transform="translate(-29.168 -14.824)" data-name="Path 212"/><path d="m162.06 283.96.214 1.736h58.69l-.215-1.736H162.06Z" fill="#f0f0f0" fill-rule="evenodd" style="--darkreader-inline-fill:#202325" transform="translate(-37.084 -26.843)" data-name="Path 213"/><path d="M0 0h6.385v68.567H0V0z" fill="#e6e6e6" fill-rule="evenodd" style="--darkreader-inline-fill:#26292b" transform="translate(190.886 258.853)" data-name="Rectangle 42"/><path d="M0 0h4.435v68.567H0V0z" fill="#f0f0f0" fill-rule="evenodd" style="--darkreader-inline-fill:#202325" transform="translate(194.857 258.853)" data-name="Rectangle 43"/><path d="M0 0h82.287v7.85H0V0z" fill="#f0f0f0" fill-rule="evenodd" style="--darkreader-inline-fill:#202325" transform="rotate(180 100.336 133.351)" data-name="Rectangle 44"/><path d="M0 0h6.385v60.717H0V0z" fill="#e6e6e6" fill-rule="evenodd" style="--darkreader-inline-fill:#26292b" transform="translate(109.135 266.702)" data-name="Rectangle 45"/><path d="M0 0h4.435v60.717H0V0z" fill="#f0f0f0" fill-rule="evenodd" style="--darkreader-inline-fill:#202325" transform="translate(113.099 266.702)" data-name="Rectangle 46"/><path d="M0 0h6.385v60.717H0V0z" fill="#e6e6e6" fill-rule="evenodd" style="--darkreader-inline-fill:#26292b" transform="translate(68.716 266.702)" data-name="Rectangle 47"/><path d="M0 0h4.435v60.717H0V0z" fill="#f0f0f0" fill-rule="evenodd" style="--darkreader-inline-fill:#202325" transform="translate(72.687 266.702)" data-name="Rectangle 48"/><path d="M0 0h6.385v60.717H0V0z" fill="#e6e6e6" fill-rule="evenodd" style="--darkreader-inline-fill:#26292b" transform="translate(150.475 266.702)" data-name="Rectangle 49"/><path d="M0 0h4.435v60.717H0V0z" fill="#f0f0f0" fill-rule="evenodd" style="--darkreader-inline-fill:#202325" transform="translate(154.439 266.702)" data-name="Rectangle 50"/><path d="M0 0h49.661v7.85H0V0z" fill="#e6e6e6" fill-rule="evenodd" style="--darkreader-inline-fill:#26292b" transform="translate(68.716 258.853)" data-name="Rectangle 51"/><path d="M275.611 361.96h-1.55l-4.406-21.885-.779-3.835-4.885-23.849h-18.57l-10.05 49.568H233.8l10.256-50.482a.75.75 0 0 1 .715-.607h19.884a.714.714 0 0 1 .714.607l4.286 20.942.714 3.828 5.242 25.712Z" fill="#f0f0f0" fill-rule="evenodd" style="--darkreader-inline-fill:#202325" transform="translate(-57.584 -34.533)" data-name="Path 214"/><path d="M317.376 361.962h-1.557l-10.071-49.568h-18.57l-4.864 23.856-.714 3.828-4.45 21.884h-1.55l5.221-25.712.771-3.821 4.286-20.942a.757.757 0 0 1 .714-.607h19.82a.75.75 0 0 1 .714.607l10.25 50.475Z" fill="#f0f0f0" fill-rule="evenodd" style="--darkreader-inline-fill:#202325" transform="translate(-69.529 -34.536)" data-name="Path 215"/><path d="M270 301.337h34.126c6.514 0 10.128-4.428 11.971-11.728l.9-4.171a8.571 8.571 0 0 0-8.35-10.578H287.22c-4.428 0-5.6 1.057-8.663 7.728-3.065 6.671-8.557 18.749-8.557 18.749Z" fill="#f0f0f0" fill-rule="evenodd" style="--darkreader-inline-fill:#202325" transform="translate(-67.929 -24.242)" data-name="Path 216"/><path d="M0 .007h36.369c.943 0 1.707.764 1.707 1.707v.157a4.671 4.671 0 0 1-4.671 4.671H0V0Z" fill="#f0f0f0" fill-rule="evenodd" style="--darkreader-inline-fill:#202325" transform="rotate(180 110.339 138.55)" data-name="Path 217"/></g><g data-name="freepik--Shadow--inject-37"><path d="M0 7.985a138.484 8.085 0 1 1 0 .1z" fill="#f5f5f5" fill-rule="evenodd" style="--darkreader-inline-fill:#1e2021" transform="translate(49.303 343.511)" data-name="freepik--path--inject-37"/></g><g data-name="freepik--character-female--inject-37"><path d="m197.886 380.395-4.57 2.943-8.286-9.635 4.571-2.943 8.285 9.635Z" fill="#ff8b7b" fill-rule="evenodd" style="--darkreader-inline-fill:#ff8170" transform="translate(-43.648 -51.647)" data-name="Path 218"/><path d="m189.608 370.76-4.578 2.943 4.278 4.97 4.571-2.949-4.27-4.964Z" fill-rule="evenodd" style="--darkreader-inline-fill:#e8e6e3" transform="translate(-43.648 -51.647)" data-name="Path 219"/><path d="m149.83 401.25-5.256.513-5.464-12.499 5.257-.514 5.464 12.5Z" fill="#ff8b7b" fill-rule="evenodd" style="--darkreader-inline-fill:#ff8170" transform="translate(-30.525 -56.788)" data-name="Path 220"/><path d="m139.12 389.274 2.814 6.443h5.478l-3.042-6.957-5.25.514Z" fill-rule="evenodd" style="--darkreader-inline-fill:#e8e6e3" transform="translate(-30.528 -56.79)" data-name="Path 221"/><path d="M85.423 168.917c-2.643.235-2.714-4.25-7.357-2.143-5.9 2.686-3.907 6.85-8.513 6.678-4.607-.171-7.693 3.421-6.664 6.1 1.028 2.678 2.621 5.214-.636 6.292-3.257 1.079-5.471 2.029-5 4.728.472 2.7 2.779 3.786-1.107 5.507-3.885 1.722-3.492 9.164.315 9.171 3.806.007.157 3.714 3.57 7.485 3.415 3.771 8.607 4.286 10.771 2.429 2.165-1.857 4.579-3.393 8.65-.536 4.071 2.857 10.963 3.571 10.65-.957-.315-4.528-4.286-7.5-.544-9.857 3.743-2.357 8.571-3.52 7.057-8.106-.964-2.857-3.878-5.343-1.528-7.478 3.82-3.471 3.842-11.328-.843-13.32-2.721-1.15-.1-6.779-8.821-5.993Z" fill="#263238" fill-rule="evenodd" style="--darkreader-inline-fill:#1e282d" transform="translate(-6.036 6.806)" data-name="Path 222"/><path d="M79.674 219.266c-.129 2.142-.4 4.05-.714 6.056-.315 2.007-.772 3.964-1.293 5.929a43.87 43.87 0 0 1-1.936 5.828 40.578 40.578 0 0 1-1.3 2.857c-.235.471-.493.935-.757 1.392-.121.236-.271.465-.407.715l-.207.335c-.14.224-.298.437-.471.636a4.207 4.207 0 0 1-1.429 1.05c-.487.22-1.01.354-1.543.393a6.108 6.108 0 0 1-2.314-.314c-1.108-.381-2.164-.9-3.142-1.543a38.752 38.752 0 0 1-4.879-3.778 81.801 81.801 0 0 1-8.192-8.621l2.028-1.95c1.429 1.257 2.857 2.535 4.35 3.75 1.493 1.214 2.95 2.435 4.471 3.57a37.581 37.581 0 0 0 4.571 3.015 9.187 9.187 0 0 0 2.143.878c.18.056.37.073.557.05h-.143a1.021 1.021 0 0 0-.257.179l-.035.036s0 .05 0 0l.157-.293c.1-.193.214-.379.307-.579.2-.395.393-.795.578-1.2.357-.814.715-1.642 1-2.507.6-1.714 1.1-3.485 1.543-5.285.443-1.8.779-3.635 1.079-5.485.3-1.85.528-3.743.714-5.5l5.52.386Z" fill="#ff8b7b" fill-rule="evenodd" style="--darkreader-inline-fill:#ff8170" transform="translate(-5.373 -8.246)" data-name="Path 223"/><path d="M91.453 218.195c-.285 1.729-1.721 5-2.857 7.428-.842 1.757-1.528 3.079-1.528 3.079l-1-.443-8.278-3.686c.629-4.464 1.65-9.285 6.571-11.477 3.071-1.357 7.6 1.985 7.092 5.1Z" fill="#f2ad0b" fill-rule="evenodd" style="--darkreader-inline-fill:#f5b725" transform="translate(-13.003 -6.504)" data-name="Path 224"/><path d="M91.453 218.195c-.285 1.729-1.721 5-2.857 7.428-.842 1.757-1.528 3.079-1.528 3.079l-1-.443-8.278-3.686c.629-4.464 1.65-9.285 6.571-11.477 3.071-1.357 7.6 1.985 7.092 5.1Z" fill-rule="evenodd" style="--darkreader-inline-fill:#e8e6e3" transform="translate(-13.003 -6.504)" data-name="Path 225"/><path d="M91.878 229.497c-.842 1.757-1.528 3.078-1.528 3.078l-1-.443c.136-1.764.486-4.542 1.428-5.792a7.857 7.857 0 0 1 1.1 3.157Z" fill-rule="evenodd" style="--darkreader-inline-fill:#e8e6e3" transform="translate(-16.306 -10.377)" data-name="Path 226"/><path d="m52.475 232.367.657-4.807-5.392 1.743s.857 2.907 2.778 4.1l1.957-1.036Z" fill="#ff8b7b" fill-rule="evenodd" style="--darkreader-inline-fill:#ff8170" transform="translate(-4.415 -10.726)" data-name="Path 227"/><path d="m50.364 221.81-3.764 2.064.814 3.814 5.393-1.771-2.443-4.107Z" fill="#ff8b7b" fill-rule="evenodd" style="--darkreader-inline-fill:#ff8170" transform="translate(-4.09 -9.083)" data-name="Path 228"/><path d="m192.32 384.888 4.963-3.572a.436.436 0 0 1 .572.05l3.378 3.522a.871.871 0 0 1-.143 1.292c-1.75 1.215-2.657 1.707-4.842 3.271-1.343.965-4.171 3.293-6.028 4.622-1.857 1.328-3.264-.429-2.614-1.15 2.928-3.229 3.706-5.428 4.17-7.243.085-.319.276-.599.544-.792Z" fill="#263238" fill-rule="evenodd" style="--darkreader-inline-fill:#cac6bf" transform="translate(-44.338 -54.64)" data-name="Path 229"/><path d="M141.937 404.7h6.429a.536.536 0 0 1 .507.393l1.428 5.1a.8.8 0 0 1-.786 1.02H134.66c-2.358 0-2.858-2.385-1.88-2.599 4.372-.964 6.893-2.3 8.243-3.571.25-.226.577-.349.914-.343Z" fill="#263238" fill-rule="evenodd" style="--darkreader-inline-fill:#cac6bf" transform="translate(-28.582 -61.346)" data-name="Path 230"/><path d="m118.59 234.406-21.049 6.657c-14.57-28.84-12.492-30.37-12.492-30.37s3.364-1.92 6.864-3.52c.528-.243 1.064-.479 1.593-.715a70.272 70.272 0 0 1 9.556-3.028c.479-.129.957-.243 1.429-.357a67.137 67.137 0 0 1 7.856-1.293c.314 3.993.629 7.37.972 10.306.442 3.829.92 6.893 1.428 9.543a83.351 83.351 0 0 0 3.843 12.777Z" fill="#f2ad0b" fill-rule="evenodd" style="--darkreader-inline-fill:#c28a09" transform="translate(-15.048 -3.359)" data-name="Path 231"/><path d="m118.59 234.406-21.049 6.657c-14.57-28.84-12.492-30.37-12.492-30.37s3.364-1.92 6.864-3.52c.528-.243 1.064-.479 1.593-.715a70.272 70.272 0 0 1 9.556-3.028c.479-.129.957-.243 1.429-.357a67.137 67.137 0 0 1 7.856-1.293c.314 3.993.629 7.37.972 10.306.442 3.829.92 6.893 1.428 9.543a83.351 83.351 0 0 0 3.843 12.777Z" fill-rule="evenodd" style="--darkreader-inline-fill:#000000" transform="translate(-15.048 -3.359)" data-name="Path 232"/><path d="M125.335 224.79c-2.021-2.858-3.957-9.507-3.457-12l2 2.457c.443 3.828.921 6.892 1.457 9.542Z" fill-rule="evenodd" style="--darkreader-inline-fill:#e8e6e3" transform="translate(-25.578 -6.505)" data-name="Path 233"/><path d="M103.63 216.448s5.307-1.15 7.014 1.157c2.343-2.307 1.514-11.32.386-14.535-.895.152-1.773.391-2.622.714l-3.75 5.8-1.028 6.864Z" fill="#fff" fill-rule="evenodd" style="--darkreader-inline-fill:#e8e6e3" transform="translate(-20.387 -3.728)" data-name="Path 234"/><path d="M100.36 217.956s-3.572.8-3.95 3.722c-5-3.722-4.65-9.171-3.521-12.385a12.6 12.6 0 0 1 2.685-.943l3.75 4.128 1.036 5.478Z" fill="#fff" fill-rule="evenodd" style="--darkreader-inline-fill:#e8e6e3" transform="translate(-17.116 -5.236)" data-name="Path 235"/><path d="M102.838 195.065c.715 2.628 1.8 5.228 3.571 6.085 0 0 1.65 4.729-4.778 12.635-6.728-4.792-4.785-9.606-4.785-9.606 3.171-1.907 2.278-4.421.928-6.621l1.864-2.993a1.771 1.771 0 0 1 3.2.5Z" fill="#ff8b7b" fill-rule="evenodd" style="--darkreader-inline-fill:#ff8170" transform="translate(-18.374 -1.065)" data-name="Path 236"/><path d="M103.811 195.055a1.771 1.771 0 0 0-3.221-.5l-.6.958c.05.635.079 1.157.071 1.428-.057 1.857 2.55 1.771 4.672.879a18.812 18.812 0 0 1-.922-2.765Z" fill-rule="evenodd" style="--darkreader-inline-fill:#e8e6e3" transform="translate(-19.346 -1.056)" data-name="Path 237"/><path d="M87.059 181.55c1.857 5.064 2.528 7.25 5.928 9.12 5.107 2.822 10.92-.563 10.62-6.084-.27-4.964-3.256-12.421-8.92-12.971a7.364 7.364 0 0 0-7.628 9.935Z" fill="#ff8b7b" fill-rule="evenodd" style="--darkreader-inline-fill:#ff8170" transform="translate(-15.515 5.272)" data-name="Path 238"/><path d="M99.319 173.56c-1.743-1.678-3.571-3.628-7.071-3.25-3.871.422-5.4 2.765-5.4 2.765l-3.328 7.278s2.064 9.37 5.471 5c1.964-2.529 2.014-6.35 1.3-9.207a23.08 23.08 0 0 0 3.943-.914c1.57.586 3.335.586 4.642-.614.286-.264.493-.472.643-.636l.121-.136c.386-.492.065-.442-.321-.285Zm-4.5 1.515c1.22-.395 2.46-.726 3.714-.993a3.664 3.664 0 0 1-3.714.993Z" fill="#263238" fill-rule="evenodd" style="--darkreader-inline-fill:#cac6bf" transform="translate(-14.64 5.647)" data-name="Path 239"/><path d="M87.48 191.633a3.957 3.957 0 0 0 2.422 1.807c1.343.336 1.979-.871 1.571-2.143-.364-1.12-1.5-2.65-2.857-2.435a1.779 1.779 0 0 0-1.135 2.771Z" fill="#ff8b7b" fill-rule="evenodd" style="--darkreader-inline-fill:#ff8170" transform="translate(-15.68 .338)" data-name="Path 240"/><path d="M102.568 254.85s-.714 43.133 4.921 58.717c5.429 14.942 21.62 40.626 21.62 40.626l9.386-.236s-14.914-32.533-17.35-45.39C117.09 287.234 117.983 250 117.983 250l-15.414 4.85Z" fill="#f2ad0b" fill-rule="evenodd" style="--darkreader-inline-fill:#c28a09" transform="translate(-20.075 -17.138)" data-name="Path 241"/><path d="m114.38 258.57 2.521-7.142 4.464-1.428s-.407 16.949.572 34.526c-4.05-7.8-7.557-22.084-7.557-25.955Z" fill-rule="evenodd" style="--darkreader-inline-fill:#000000" transform="translate(-23.459 -17.138)" data-name="Path 242"/><path d="m137.196 395.017 11.592-.293-.672-3.564-12.656.6 1.736 3.257Z" fill="#263238" fill-rule="evenodd" style="--darkreader-inline-fill:#cac6bf" transform="translate(-29.482 -57.477)" data-name="Path 243"/><path d="M109 252.731s14.642 33.49 24.106 52.554c7.642 15.399 31.426 36.054 31.426 36.054l6.521-4.52s-17.899-24.47-23.177-34.913c-16.892-33.412-12.728-47.182-22.441-54.446L109 252.731Z" fill="#f2ad0b" fill-rule="evenodd" style="--darkreader-inline-fill:#c28a09" transform="translate(-21.921 -16.413)" data-name="Path 244"/><path d="m186.293 378.402 7.656-5.45-1.735-3.342-8.414 6.364 2.493 2.428Z" fill="#263238" fill-rule="evenodd" style="--darkreader-inline-fill:#cac6bf" transform="translate(-43.296 -51.318)" data-name="Path 245"/><path d="m123.196 245.558 1.543 1.585c.121.122 0 .329-.25.408l-22.077 6.978c-.186.064-.372 0-.422-.093l-.785-1.829c-.058-.121.071-.285.278-.35l21.32-6.75a.4.4 0 0 1 .393.05Z" fill="#263238" fill-rule="evenodd" style="--darkreader-inline-fill:#cac6bf" transform="translate(-19.69 -15.846)" data-name="Path 246"/><path d="m128.476 249.072.572-.179c.114 0 .185-.128.15-.192l-1.036-2.365a.221.221 0 0 0-.264-.064l-.572.186c-.114.036-.185.121-.15.193l1.043 2.357c.022.071.136.1.257.064Z" fill="#f2ad0b" fill-rule="evenodd" style="--darkreader-inline-fill:#f5b725" transform="translate(-27.113 -16.068)" data-name="Path 247"/><path d="m104.665 256.606.57-.179c.115-.035.18-.121.15-.193l-1.042-2.364c0-.071-.15-.093-.264-.057l-.572.179c-.107.035-.178.121-.15.193l1.043 2.364a.229.229 0 0 0 .265.057Z" fill="#f2ad0b" fill-rule="evenodd" style="--darkreader-inline-fill:#f5b725" transform="translate(-20.307 -18.223)" data-name="Path 248"/><path d="m116.566 252.876.572-.178c.114-.036.185-.122.15-.193l-1.043-2.364c0-.064-.143-.093-.257-.057l-.572.178c-.114 0-.185.122-.15.193l1.036 2.364c.036.057.15.057.264.057Z" fill="#f2ad0b" fill-rule="evenodd" style="--darkreader-inline-fill:#f5b725" transform="translate(-23.71 -17.158)" data-name="Path 249"/><path d="M99.67 183.63c.13.42.45.714.715.614.264-.1.393-.493.264-.908-.128-.414-.443-.714-.714-.614-.271.1-.386.472-.264.907Z" fill="#263238" fill-rule="evenodd" style="--darkreader-inline-fill:#cac6bf" transform="translate(-19.241 2.092)" data-name="Path 250"/><path d="M106.322 181.63c.128.42.45.713.714.613.264-.1.393-.485.271-.907-.121-.421-.45-.714-.714-.614-.264.1-.393.486-.271.907Z" fill="#263238" fill-rule="evenodd" style="--darkreader-inline-fill:#cac6bf" transform="translate(-21.143 2.664)" data-name="Path 251"/><path d="m106.56 180.573.921-.593s-.278.943-.921.593Z" fill="#263238" fill-rule="evenodd" style="--darkreader-inline-fill:#cac6bf" transform="translate(-21.224 2.87)" data-name="Path 252"/><path d="M104.68 183.53a11.949 11.949 0 0 0 2.3 2.236c-.349.435-.87.696-1.429.714l-.871-2.95Z" fill="#ff5652" fill-rule="evenodd" style="--darkreader-inline-fill:#ff5753" transform="translate(-20.687 1.856)" data-name="Path 253"/><path d="M102.547 190.599a.129.129 0 0 0 .043-.136.136.136 0 0 0-.157-.093 3.443 3.443 0 0 1-3.1-.493.132.132 0 0 0-.171.2 3.7 3.7 0 0 0 3.342.543Z" fill="#263238" fill-rule="evenodd" style="--darkreader-inline-fill:#cac6bf" transform="translate(-19.097 .051)" data-name="Path 254"/><path d="M97.01 181.602a.264.264 0 0 0 .071-.114 2.064 2.064 0 0 1 1.336-1.293.257.257 0 1 0-.107-.5 2.529 2.529 0 0 0-1.707 1.643.257.257 0 0 0 .15.335.293.293 0 0 0 .257-.071Z" fill="#263238" fill-rule="evenodd" style="--darkreader-inline-fill:#cac6bf" transform="translate(-18.373 2.956)" data-name="Path 255"/><path d="M107.35 178.067a.178.178 0 0 1 0-.05.271.271 0 0 0-.208-.3 2.578 2.578 0 0 0-2.27.615.258.258 0 0 0 .37.357 2.043 2.043 0 0 1 1.8-.465.264.264 0 0 0 .308-.157Z" fill="#263238" fill-rule="evenodd" style="--darkreader-inline-fill:#cac6bf" transform="translate(-20.72 3.533)" data-name="Path 256"/><path d="M126.461 208.86c.85.636 1.564 1.228 2.307 1.871a69.581 69.581 0 0 1 2.143 1.957 63.865 63.865 0 0 1 4.007 4.214 47.519 47.519 0 0 1 3.571 4.664c.286.4.536.836.8 1.25.264.414.528.836.764 1.279.236.443.486.835.714 1.328l.379.793.307.8c.658 2.028.968 4.153.914 6.285a34.773 34.773 0 0 1-.635 5.9 52.263 52.263 0 0 1-1.429 5.6 54.626 54.626 0 0 1-2.014 5.392l-2.586-.957c.443-1.714.865-3.514 1.179-5.293.349-1.76.604-3.54.764-5.328.172-1.732.212-3.475.122-5.214a20.802 20.802 0 0 0-.3-2.457 14.142 14.142 0 0 0-.65-2.2l-.222-.492-.243-.45a16.46 16.46 0 0 0-.714-1.079c-.257-.364-.471-.714-.714-1.078a15.89 15.89 0 0 0-.764-1.058c-1.043-1.428-2.222-2.728-3.393-4.05-1.171-1.32-2.457-2.563-3.764-3.778a66.882 66.882 0 0 0-1.971-1.8 67.235 67.235 0 0 0-1.993-1.67l3.421-4.429Z" fill="#ff8b7b" fill-rule="evenodd" style="--darkreader-inline-fill:#821000" transform="translate(-25.933 -5.382)" data-name="Path 257"/><path d="m140.354 263-3.914 2.857 5 2.643s1.492-2.643 1.014-4.85l-2.1-.65Z" fill="#ff8b7b" fill-rule="evenodd" style="--darkreader-inline-fill:#ff8170" transform="translate(-29.762 -20.853)" data-name="Path 258"/><path d="m134.71 271.641 4.093 1.264 2.178-3.242-5.035-2.643-1.236 4.621Z" fill="#ff8b7b" fill-rule="evenodd" style="--darkreader-inline-fill:#ff8170" transform="translate(-29.268 -22.002)" data-name="Path 259"/><path d="M121.627 201.8c2.736-.122 8.114 6.599 8.114 6.599l-5.586 7.9s-6.27-5-6.756-8.479c-.407-2.964.743-5.878 4.228-6.02Z" fill="#f2ad0b" fill-rule="evenodd" style="--darkreader-inline-fill:#f5b725" transform="translate(-24.299 -3.364)" data-name="Path 260"/><path d="M121.627 201.8c2.736-.122 8.114 6.599 8.114 6.599l-5.586 7.9s-6.27-5-6.756-8.479c-.407-2.964.743-5.878 4.228-6.02Z" fill-rule="evenodd" style="--darkreader-inline-fill:#e8e6e3" transform="translate(-24.299 -3.364)" data-name="Path 261"/><path d="M191.354 388.843h-.086a.714.714 0 0 1-.57-.436.457.457 0 0 1 0-.443c.35-.6 2.313-.714 2.535-.714.05 0 .097.027.121.071.029.044.029.1 0 .143-.478.529-1.328 1.379-2 1.379Zm1.572-1.307c-.786.057-1.829.243-2.007.557a.171.171 0 0 0 0 .193.478.478 0 0 0 .37.3c.38.042.98-.35 1.637-1.05Z" fill="#f2ad0b" fill-rule="evenodd" style="--darkreader-inline-fill:#f5b725" transform="translate(-45.25 -56.36)" data-name="Path 262"/><path d="M193.189 386.983c-.657 0-1.95-.365-2.193-.893a.464.464 0 0 1 .143-.543c.15-.134.35-.2.55-.179.778.086 1.7 1.35 1.735 1.429.025.04.025.09 0 .129a.136.136 0 0 1-.1.07l-.135-.013Zm-1.586-1.357c-.107-.001-.21.04-.286.114-.121.107-.107.193-.085.25.157.343 1.171.714 1.835.714-.328-.407-.943-1.05-1.428-1.1Z" fill="#f2ad0b" fill-rule="evenodd" style="--darkreader-inline-fill:#f5b725" transform="translate(-45.342 -55.82)" data-name="Path 263"/><path d="M141.145 405.645a2.142 2.142 0 0 1-1.257-.3.807.807 0 0 1-.329-.621.386.386 0 0 1 .165-.35c.585-.393 2.778.6 3.214.807.05.022.079.074.071.128a.129.129 0 0 1-.1.115 8.87 8.87 0 0 1-1.764.22Zm-1.021-1.114a.492.492 0 0 0-.257.057.129.129 0 0 0-.05.121.55.55 0 0 0 .228.429c.379.286 1.271.328 2.421.114a7.857 7.857 0 0 0-2.342-.721Z" fill="#f2ad0b" fill-rule="evenodd" style="--darkreader-inline-fill:#f5b725" transform="translate(-30.653 -61.226)" data-name="Path 264"/><path d="M143.335 404.908h-.043c-.714-.3-2.2-1.478-2.143-2.085 0-.129.108-.3.436-.336 1.286-.157 1.828 2.143 1.85 2.271a.136.136 0 0 1-.043.129.114.114 0 0 1-.057.021Zm-1.579-2.178h-.085c-.136 0-.207.057-.222.121-.043.35.972 1.286 1.715 1.693-.193-.564-.658-1.814-1.408-1.814Z" fill="#f2ad0b" fill-rule="evenodd" style="--darkreader-inline-fill:#f5b725" transform="translate(-31.108 -60.711)" data-name="Path 265"/><path d="m99.91 182.553.921-.593s-.278.943-.921.593Z" fill="#263238" fill-rule="evenodd" style="--darkreader-inline-fill:#cac6bf" transform="translate(-19.324 2.305)" data-name="Path 266"/></g><g data-name="freepik--Account--inject-37"><path d="M243.829 109.67h-103.8a8.12 8.12 0 0 0-8.164 8.57l9.735 201.823a9.12 9.12 0 0 0 8.985 8.57h103.8a8.114 8.114 0 0 0 8.157-8.57l-9.728-201.822a9.12 9.12 0 0 0-8.985-8.571Z" fill-rule="evenodd" style="--darkreader-inline-fill:#000000" transform="translate(-28.452 22.963)" data-name="Path 267"/><path d="M249.19 109.67H145.361a8.114 8.114 0 0 0-8.156 8.57l9.728 201.823a9.12 9.12 0 0 0 8.985 8.57h103.8a8.113 8.113 0 0 0 8.157-8.57l-9.728-201.822a9.12 9.12 0 0 0-8.957-8.571Z" fill="#263238" fill-rule="evenodd" style="--darkreader-inline-fill:#1e282d" transform="translate(-29.977 22.963)" data-name="Path 268"/><path d="M157.915 325.206a3.078 3.078 0 0 1-2.993-2.857l-9.713-201.822a2.728 2.728 0 0 1 2.721-2.857h103.8a3.064 3.064 0 0 1 2.993 2.857l9.728 201.822a2.728 2.728 0 0 1-2.714 2.857H157.915Z" fill="#f2ad0b" fill-rule="evenodd" style="--darkreader-inline-fill:#c28a09" transform="translate(-32.267 20.676)" data-name="Path 269"/><path d="M158.437 324.35a1.557 1.557 0 0 1-1.5-1.43l-9.727-201.822a1.378 1.378 0 0 1 1.357-1.428h103.8a1.55 1.55 0 0 1 1.5 1.428l9.728 201.823a1.379 1.379 0 0 1-1.357 1.428h-103.8Z" fill-rule="evenodd" style="--darkreader-inline-fill:#000000" transform="translate(-32.84 20.105)" data-name="Path 270"/><g data-name="Group 54"><path d="M197.08 375.812h-20.562a2.228 2.228 0 0 1-2.2-2.1l-1.5-31.22a2.007 2.007 0 0 1 2.021-2.142h20.599a2.214 2.214 0 0 1 2.193 2.093l1.478 31.226a2.014 2.014 0 0 1-2.028 2.143Zm-22.27-34.734a1.329 1.329 0 0 0-.956.4 1.35 1.35 0 0 0-.357.979l1.507 31.212a1.507 1.507 0 0 0 1.485 1.429h20.592a1.307 1.307 0 0 0 1.314-1.386l-1.507-31.22a1.5 1.5 0 0 0-1.479-1.428l-20.598.014Z" fill="#fafafa" fill-rule="evenodd" style="--darkreader-inline-fill:#1b1d1e" transform="translate(-40.157 -42.957)" data-name="Path 271"/><path d="M196.192 351.234h-19.335a.357.357 0 1 1 0-.714h19.356a.357.357 0 0 1 0 .714Z" fill="#fafafa" fill-rule="evenodd" style="--darkreader-inline-fill:#e5e3df" transform="translate(-41.21 -45.863)" data-name="Path 272"/><path d="M196.46 356.884h-19.363a.364.364 0 0 1-.357-.357c0-.197.16-.357.357-.357h19.363c.197 0 .357.16.357.357a.364.364 0 0 1-.357.357Z" fill="#fafafa" fill-rule="evenodd" style="--darkreader-inline-fill:#e5e3df" transform="translate(-41.279 -47.478)" data-name="Path 273"/><path d="M196.73 362.534h-19.363a.364.364 0 0 1-.357-.357c0-.197.16-.357.357-.357h19.363a.357.357 0 0 1 0 .714Z" fill="#fafafa" fill-rule="evenodd" style="--darkreader-inline-fill:#e5e3df" transform="translate(-41.356 -49.092)" data-name="Path 274"/><path d="M197.003 368.184h-19.356a.357.357 0 1 1 0-.714h19.356a.357.357 0 0 1 0 .714Z" fill="#fafafa" fill-rule="evenodd" style="--darkreader-inline-fill:#e5e3df" transform="translate(-41.436 -50.707)" data-name="Path 275"/><path d="M197.273 373.834h-19.356a.357.357 0 1 1 0-.714h19.356a.357.357 0 0 1 0 .714Z" fill="#fafafa" fill-rule="evenodd" style="--darkreader-inline-fill:#e5e3df" transform="translate(-41.513 -52.321)" data-name="Path 276"/><path d="M193.579 379.484h-15.392a.357.357 0 0 1 0-.714h15.392c.197 0 .357.16.357.357a.364.364 0 0 1-.357.357Z" fill="#fafafa" fill-rule="evenodd" style="--darkreader-inline-fill:#e5e3df" transform="translate(-41.59 -53.936)" data-name="Path 277"/></g><g data-name="Group 55"><path d="m207.146 222.637-14.12 2.257a16.427 16.427 0 0 0-2.144-3.764 10.106 10.106 0 0 0-2.95-2.142l.53 11.07c7.851 2.067 13.134 4.248 15.848 6.543a15.899 15.899 0 0 1 5.714 11.749 15.578 15.578 0 0 1-1.407 7.67 17.406 17.406 0 0 1-4.464 5.822 17.908 17.908 0 0 1-5.978 3.385 29.479 29.479 0 0 1-7.928 1.243l.093 1.95a2.635 2.635 0 0 1-2.657 2.793 2.964 2.964 0 0 1-2.929-2.793l-.093-1.95a36.08 36.08 0 0 1-9.206-1.814 19.73 19.73 0 0 1-6.221-3.65 19.284 19.284 0 0 1-4.186-5.035 24.283 24.283 0 0 1-2.378-6.521l15.363-1.793c.581 2.519 1.295 4.34 2.143 5.464a10.32 10.32 0 0 0 3.985 2.985l-.65-13.513a75.579 75.579 0 0 1-11.142-3.714 15.663 15.663 0 0 1-5.842-5.035 15.135 15.135 0 0 1-2.779-8.443 14.442 14.442 0 0 1 4.214-11.385c3.029-3.052 7.671-4.742 13.928-5.07l-.05-.993a2.636 2.636 0 0 1 2.657-2.793 2.964 2.964 0 0 1 2.928 2.793l.05.992c5.714.357 10.145 1.71 13.292 4.057a17.327 17.327 0 0 1 6.379 9.635Zm-24.784-3.82a6.72 6.72 0 0 0-3.307 1.992 4.2 4.2 0 0 0-.822 2.807 4.9 4.9 0 0 0 1.114 2.942c.954 1.001 2.161 1.724 3.493 2.093l-.478-9.835Zm7.406 37.654c2.143-.476 3.69-1.276 4.643-2.4a5.171 5.171 0 0 0 1.328-3.743 5.307 5.307 0 0 0-1.428-3.32c-.9-1.008-2.614-1.95-5.128-2.815l.585 12.278Z" fill="#fafafa" fill-rule="evenodd" style="--darkreader-inline-fill:#1b1d1e" transform="translate(-37.258 -4.325)" data-name="Path 278"/></g><path d="M248.91 146.56H178.2l6.892 142.926c.698 12.15 10.687 21.683 22.856 21.813h70.71l-6.886-142.926c-.69-12.156-10.688-21.693-22.862-21.813Z" fill-rule="evenodd" style="--darkreader-inline-fill:#000000" transform="translate(-41.696 12.42)" data-name="Path 279"/><path d="M266.238 146.56H178.23c12.17.127 22.161 9.662 22.856 21.813l5.62 116.35c.699 12.149 10.687 21.682 22.856 21.812h44.376a20.599 20.599 0 0 0 20.777-21.813l-5.614-116.35c-.691-12.155-10.688-21.692-22.863-21.812Z" fill="#fafafa" fill-rule="evenodd" style="--darkreader-inline-fill:#1b1d1e" transform="translate(-41.704 12.42)" data-name="Path 280"/><path d="M270.876 340a20.591 20.591 0 0 1-20.756 21.813h88.001A20.598 20.598 0 0 0 358.884 340h-88.008Z" fill="#e6e6e6" fill-rule="evenodd" style="--darkreader-inline-fill:#26292b" transform="translate(-62.248 -42.857)" data-name="Path 281"/><path d="M293.235 246.373h-62.196a1.721 1.721 0 0 1-1.7-1.622 1.536 1.536 0 0 1 1.543-1.621h62.196a1.721 1.721 0 0 1 1.728 1.621 1.536 1.536 0 0 1-1.571 1.622Z" fill="#f2ad0b" fill-rule="evenodd" style="--darkreader-inline-fill:#c28a09" transform="translate(-56.309 -15.175)" data-name="Path 282"/><path d="M293.915 260.543h-62.196a1.721 1.721 0 0 1-1.7-1.622 1.536 1.536 0 0 1 1.543-1.621h62.203c.902.013 1.64.72 1.693 1.621a1.536 1.536 0 0 1-1.543 1.622Z" fill="#f2ad0b" fill-rule="evenodd" style="--darkreader-inline-fill:#c28a09" transform="translate(-56.503 -19.224)" data-name="Path 283"/><path d="M294.602 274.703h-62.203a1.721 1.721 0 0 1-1.7-1.622 1.536 1.536 0 0 1 1.543-1.621h62.238c.905.01 1.648.718 1.7 1.621a1.536 1.536 0 0 1-1.578 1.622Z" fill="#f2ad0b" fill-rule="evenodd" style="--darkreader-inline-fill:#c28a09" transform="translate(-56.697 -23.27)" data-name="Path 284"/><path d="M295.285 288.893h-62.196a1.729 1.729 0 0 1-1.7-1.622 1.536 1.536 0 0 1 1.543-1.621h62.196c.904.01 1.647.718 1.7 1.621a1.535 1.535 0 0 1-1.543 1.622Z" fill="#f2ad0b" fill-rule="evenodd" style="--darkreader-inline-fill:#c28a09" transform="translate(-56.895 -27.326)" data-name="Path 285"/><path d="M271.238 303.063h-37.47a1.721 1.721 0 0 1-1.699-1.622 1.535 1.535 0 0 1 1.543-1.621h37.469c.904.01 1.647.718 1.7 1.621a1.536 1.536 0 0 1-1.543 1.622Z" fill="#f2ad0b" fill-rule="evenodd" style="--darkreader-inline-fill:#c28a09" transform="translate(-57.089 -31.375)" data-name="Path 286"/><path d="M0 19.92a19.077 20.02 0 1 1 0 .1z" fill="#f2ad0b" fill-rule="evenodd" style="--darkreader-inline-fill:#c28a09" transform="rotate(-45.69 320.75 -111.518)" data-name="Ellipse 3"/><path d="M282.567 192.247a15.65 15.65 0 0 1-1.578 7.685 15.192 15.192 0 0 1-13.764 8.443 17.042 17.042 0 0 1-14.584-8.443 16.599 16.599 0 0 1-2.322-7.685 15.228 15.228 0 0 1 15.35-16.127c8.99.111 16.367 7.151 16.898 16.127Z" fill="#fff" fill-rule="evenodd" style="--darkreader-inline-fill:#181a1b" transform="translate(-62.297 3.974)" data-name="Path 287"/><path d="M281.928 207.745a15.192 15.192 0 0 1-13.763 8.443 17.042 17.042 0 0 1-14.585-8.443 24.427 24.427 0 0 1 13.97-4.285c5.106.01 10.1 1.498 14.378 4.285Z" fill="#f2ad0b" fill-rule="evenodd" style="--darkreader-inline-fill:#f5b725" transform="translate(-63.237 -3.839)" data-name="Path 288"/><path d="M0 7.257a7.014 7.357 0 1 1 0 .1z" fill="#f2ad0b" fill-rule="evenodd" style="--darkreader-inline-fill:#f5b725" transform="rotate(-45.69 323.038 -134.615)" data-name="Ellipse 4"/></g><g data-name="freepik--character-male--inject-37"><path d="M354.451 403.876h-5.243l-.528-12.156h5.25l.521 12.156Z" fill="#b55b52" fill-rule="evenodd" style="--darkreader-inline-fill:#bc6a62" transform="translate(-90.413 -57.637)" data-name="Path 289"/><path d="m348.69 391.73.264 6.264h5.25l-.272-6.264h-5.242Z" fill-rule="evenodd" style="--darkreader-inline-fill:#e8e6e3" transform="translate(-90.415 -57.64)" data-name="Path 290"/><path d="m414.784 384.505-4.986 1.628-6.278-10.735 4.993-1.628 6.27 10.735Z" fill="#b55b52" fill-rule="evenodd" style="--darkreader-inline-fill:#bc6a62" transform="translate(-106.084 -52.507)" data-name="Path 291"/><path d="m408.513 373.77-4.993 1.628 3.243 5.536 4.985-1.629-3.235-5.535Z" fill-rule="evenodd" style="--darkreader-inline-fill:#e8e6e3" transform="translate(-106.084 -52.507)" data-name="Path 292"/><path d="M379.122 162.92c.65.793 1.2 1.5 1.765 2.278.564.779 1.1 1.522 1.635 2.293a78.038 78.038 0 0 1 3.021 4.771 53.504 53.504 0 0 1 4.807 10.507l.122.357.057.185.078.293.143.586.079.536c.084.641.11 1.289.078 1.935a19.562 19.562 0 0 1-.471 3.236 37.859 37.859 0 0 1-1.793 5.585 64.87 64.87 0 0 1-5.114 10l-3.57-1.708c1.07-3.35 2.142-6.778 2.927-10.113.41-1.608.72-3.24.929-4.886.088-.71.114-1.427.079-2.142a4.282 4.282 0 0 0-.1-.757l-.036-.129a.688.688 0 0 1-.036-.071l-.057-.136-.114-.279-.479-1.121-.535-1.114c-.358-.714-.75-1.486-1.143-2.229a93.198 93.198 0 0 0-2.607-4.392c-.915-1.457-1.886-2.857-2.857-4.286-.972-1.428-2.036-2.857-3-4.15l6.192-5.049Z" fill="#b55b52" fill-rule="evenodd" style="--darkreader-inline-fill:#8c433c" transform="translate(-97.342 7.746)" data-name="Path 293"/><path d="m382.41 218.76-2.05 4.535h5.864s.936-3.442-1.193-4.835l-2.621.3Z" fill="#b55b52" fill-rule="evenodd" style="--darkreader-inline-fill:#bc6a62" transform="translate(-99.465 -8.126)" data-name="Path 294"/><path d="m381.046 230.33 5.442-1.05-.264-4.05h-5.864l.686 5.1Z" fill="#b55b52" fill-rule="evenodd" style="--darkreader-inline-fill:#bc6a62" transform="translate(-99.465 -10.06)" data-name="Path 295"/><path d="M344.82 130.384c0 .429-.222.772-.5.772-.279 0-.5-.343-.5-.772 0-.428.228-.764.5-.764.271 0 .5.343.5.764Z" fill="#263238" fill-rule="evenodd" style="--darkreader-inline-fill:#cac6bf" transform="translate(-89.024 17.262)" data-name="Path 296"/><path d="M344.191 131.77a15.002 15.002 0 0 1-2.021 3.614 2.45 2.45 0 0 0 2.021.386v-4Z" fill="#a02724" fill-rule="evenodd" style="--darkreader-inline-fill:#dc6865" transform="translate(-88.552 16.647)" data-name="Path 297"/><path d="M346.43 127.03a.222.222 0 0 1-.142-.05 2 2 0 0 0-1.764-.322.25.25 0 0 1-.179-.464 2.464 2.464 0 0 1 2.236.385c.109.083.134.237.057.35a.264.264 0 0 1-.207.1Z" fill="#263238" fill-rule="evenodd" style="--darkreader-inline-fill:#cac6bf" transform="translate(-89.135 18.274)" data-name="Path 298"/><path d="M359.62 137.52c-.757 3.843-1.507 10.878 1.178 13.435 0 0-1.05 3.892-8.178 3.892-7.856 0-3.75-3.892-3.75-3.892 4.286-1.022 4.172-4.193 3.422-7.178l7.328-6.257Z" fill="#b55b52" fill-rule="evenodd" style="--darkreader-inline-fill:#bc6a62" transform="translate(-90.16 15.004)" data-name="Path 299"/><path d="M361.883 156.735c.565-1.229 1.186-2.643-.1-3.086-1.428-.485-9.113-.978-11.777-.064a2.742 2.742 0 0 0-1.9 3.414l13.777-.264Z" fill="#263238" fill-rule="evenodd" style="--darkreader-inline-fill:#cac6bf" transform="translate(-90.217 10.56)" data-name="Path 300"/><path d="M410.17 392.332c-.387.372-.822.672-1.15.622a.514.514 0 0 1-.408-.429.571.571 0 0 1 .086-.478c.428-.665 2.143-.95 2.235-.958a.129.129 0 0 1 .122.05.122.122 0 0 1 0 .136 6.6 6.6 0 0 1-.886 1.057Zm-1.165-.271a.713.713 0 0 0-.1.114.343.343 0 0 0-.05.286c.057.221.164.243.2.243.364.057 1.143-.715 1.621-1.315a4.12 4.12 0 0 0-1.671.672Z" fill="#f2ad0b" fill-rule="evenodd" style="--darkreader-inline-fill:#f5b725" transform="translate(-107.533 -57.456)" data-name="Path 301"/><path d="m410.963 390.91-.057.036c-.592.157-2.142.057-2.47-.443a.421.421 0 0 1 .056-.514.714.714 0 0 1 .493-.25c.786-.057 1.921.95 1.971.993.036.03.05.077.036.121a.086.086 0 0 1-.029.057Zm-2.235-.8-.043.043c-.1.122-.057.186-.043.215.193.292 1.279.457 1.95.378a3.079 3.079 0 0 0-1.586-.757.421.421 0 0 0-.264.121Z" fill="#f2ad0b" fill-rule="evenodd" style="--darkreader-inline-fill:#f5b725" transform="translate(-107.47 -57.07)" data-name="Path 302"/><path d="M345.81 408.605c-.672 0-1.321-.093-1.536-.393a.457.457 0 0 1 0-.543.621.621 0 0 1 .393-.293c.871-.236 2.707.807 2.786.857.046.025.07.078.057.129a.121.121 0 0 1-.093.1 9.58 9.58 0 0 1-1.607.143Zm-.829-1.015a.87.87 0 0 0-.243 0 .364.364 0 0 0-.242.172c-.086.157-.058.235 0 .278.242.336 1.571.343 2.542.207a5.583 5.583 0 0 0-2.057-.657Z" fill="#f2ad0b" fill-rule="evenodd" style="--darkreader-inline-fill:#f5b725" transform="translate(-89.128 -62.1)" data-name="Path 303"/><path d="M347.94 407.962h-.05c-.628-.286-1.885-1.429-1.792-2.014 0-.143.121-.315.464-.35a.95.95 0 0 1 .714.214c.665.55.808 1.964.815 2.021a.15.15 0 0 1-.057.114.122.122 0 0 1-.093.015Zm-1.278-2.143h-.071c-.229 0-.243.107-.243.136-.057.357.793 1.25 1.428 1.635a2.857 2.857 0 0 0-.714-1.614.658.658 0 0 0-.4-.143Z" fill="#f2ad0b" fill-rule="evenodd" style="--darkreader-inline-fill:#f5b725" transform="translate(-89.673 -61.6)" data-name="Path 304"/><path d="m409.96 388.586 4.285-4.078a.45.45 0 0 1 .571-.05l3.972 2.657a.764.764 0 0 1 .085 1.2c-1.507 1.428-2.314 2.007-4.185 3.793-1.157 1.107-4.6 4.856-6.193 6.385-1.592 1.528-3.307.143-2.792-.621 2.314-3.436 3.757-6.729 3.885-8.464.023-.31.155-.6.372-.822Z" fill="#263238" fill-rule="evenodd" style="--darkreader-inline-fill:#cac6bf" transform="translate(-106.68 -55.539)" data-name="Path 305"/><path d="M344.384 407.89h5.714a.45.45 0 0 1 .443.357l1.035 4.664a.757.757 0 0 1-.75.929c-2.07 0-5.056-.15-7.656-.15-3.036 0-5.657.164-9.221.164-2.143 0-2.75-2.178-1.85-2.379 4.1-.892 7.457-.992 11-3.178a2.458 2.458 0 0 1 1.285-.407Z" fill="#263238" fill-rule="evenodd" style="--darkreader-inline-fill:#cac6bf" transform="translate(-85.56 -62.257)" data-name="Path 306"/><path d="M324.006 171.191a123.424 123.424 0 0 1-6.55 8.778 98.646 98.646 0 0 1-7.435 8.2l-1.014.985-.257.243-.186.171-.271.193c-.337.272-.698.51-1.079.715a9.613 9.613 0 0 1-3.892 1.092 21.919 21.919 0 0 1-6.186-.514 46.59 46.59 0 0 1-10.606-3.728l1.314-3.714a83.37 83.37 0 0 0 10.128 1.385 18.68 18.68 0 0 0 4.478-.185c.425-.064.83-.223 1.186-.465.036 0 0-.042 0-.042l.057-.058.207-.235.85-.929c2.229-2.542 4.393-5.257 6.493-8.028a486.36 486.36 0 0 0 6.213-8.385l6.55 4.521Z" fill="#b55b52" fill-rule="evenodd" style="--darkreader-inline-fill:#8c433c" transform="translate(-72.652 6.674)" data-name="Path 307"/><path d="M376.415 157.935c4.914 1.129 10.556 14.535 10.556 14.535l-9.877 6.771a82.808 82.808 0 0 1-6.507-11.1c-2.928-6.134.8-11.363 5.828-10.206Z" fill="#f2ad0b" fill-rule="evenodd" style="--darkreader-inline-fill:#f5b725" transform="translate(-96.378 9.216)" data-name="Path 308"/><path d="m374.22 170 4.671 12.435-.464.321s-2.021-2.857-4.207-6.664V170Z" fill-rule="evenodd" style="--darkreader-inline-fill:#e8e6e3" transform="translate(-97.71 5.723)" data-name="Path 309"/><path d="M336.97 157.718s-5.586 6.307-.308 45.355h28.063c.193-4.286-2.514-25.327 1.642-45.626a73.463 73.463 0 0 0-9.399-1.186 103.758 103.758 0 0 0-11.928 0 52.507 52.507 0 0 0-8.07 1.457Z" fill="#f2ad0b" fill-rule="evenodd" style="--darkreader-inline-fill:#c28a09" transform="translate(-86.33 9.697)" data-name="Path 310"/><path d="M340.082 174.18a24.898 24.898 0 0 1-5.542 12.013 138.79 138.79 0 0 1-.15-6.792l5.692-5.221Z" fill-rule="evenodd" style="--darkreader-inline-fill:#e8e6e3" transform="translate(-86.329 4.528)" data-name="Path 311"/><path d="M338.174 162.586c.715 4.964-9.099 17.656-9.099 17.656l-9.835-6.77s2.728-6.993 7.32-11.579c5.25-5.257 10.864-4.714 11.614.693Z" fill="#f2ad0b" fill-rule="evenodd" style="--darkreader-inline-fill:#f5b725" transform="translate(-82 9.087)" data-name="Path 312"/><path d="m286.137 189.408-3.85-3.978-4.107 5.292s3.128 3.022 6.85 2.143l1.107-3.457Z" fill="#b55b52" fill-rule="evenodd" style="--darkreader-inline-fill:#bc6a62" transform="translate(-70.266 1.313)" data-name="Path 313"/><path d="m275.824 182.33-1.764 5.557 2.943 1.928 4.106-5.292-5.285-2.193Z" fill="#b55b52" fill-rule="evenodd" style="--darkreader-inline-fill:#bc6a62" transform="translate(-69.089 2.2)" data-name="Path 314"/><path d="M359.033 126.386c-.321 5.193-.243 8.257-2.857 10.921-3.95 4.014-10.364 1.636-11.6-3.571-1.12-4.671-.406-12.385 4.679-14.45a7.1 7.1 0 0 1 9.778 7.1Z" fill="#b55b52" fill-rule="evenodd" style="--darkreader-inline-fill:#bc6a62" transform="translate(-89.11 20.367)" data-name="Path 315"/><path d="M360.134 113.32c1.6 1.472.921 3.114.085 3.421 2.593.536 2.972 2.6 1.607 6.957-1.3 4.171-4.45 9.764-8.385 10.107-5.914.514-7.642-5.65-7.685-11.764-3.343.207-1.9-2.757-6.007-2.071-3.57.593-2.228-2.193-5.264-3.407-3.52-1.429-2.814-6.821.472-5.271 0 0-1.522 1 .25 1.942 1.771.943 1.6-1.235 5.107-1.5 3.507-.264 3.914 2.736 8.013.93 5.143-2.272 8.521-2.38 11.807.656Z" fill="#263238" fill-rule="evenodd" style="--darkreader-inline-fill:#cac6bf" transform="translate(-85.689 22.584)" data-name="Path 316"/><path d="M368.57 118.614a2.05 2.05 0 0 1 2.278-.893c1.608.343 1.736 1.05 2.743.957 1.007-.093.643.979.643.979s-.272-.807-1.486-.358c-1.214.45-2.007-.65-2.528-.157-.522.493-1.65-.528-1.65-.528Z" fill="#263238" fill-rule="evenodd" style="--darkreader-inline-fill:#cac6bf" transform="translate(-96.096 20.682)" data-name="Path 317"/><path d="M353.42 130.476a5.821 5.821 0 0 1-1.836 3.3c-1.271 1.128-2.371.221-2.414-1.321 0-1.393.593-3.664 2.057-4.207 1.464-.543 2.457.685 2.193 2.228Z" fill="#b55b52" fill-rule="evenodd" style="--darkreader-inline-fill:#bc6a62" transform="translate(-90.552 17.691)" data-name="Path 318"/><path d="M351.5 221.859s5.957 40.09 9.228 55.089c3.571 16.427 28.462 60.139 28.462 60.139l9.143-2.972s-19.82-39.383-21.863-55.674c-2.221-17.678-6.857-56.611-6.857-56.611l-18.113.029Z" fill="#263238" fill-rule="evenodd" style="--darkreader-inline-fill:#1e282d" transform="translate(-91.218 -9.088)" data-name="Path 319"/><path d="M400.69 377.914c-.036 0 2.092 3.2 2.092 3.2l10.271-3.343-1.207-3.071-11.156 3.214Z" fill="#f2ad0b" fill-rule="evenodd" style="--darkreader-inline-fill:#f5b725" transform="translate(-105.275 -52.773)" data-name="Path 320"/><path d="M356.15 241.847c6.885 1.35 6.157 27.027 5.328 40.234-1.986-9.336-4.892-27.299-6.878-40.048a2.35 2.35 0 0 1 1.55-.186Z" fill-rule="evenodd" style="--darkreader-inline-fill:#000000" transform="translate(-92.104 -14.793)" data-name="Path 321"/><path d="M337.422 221.87s-.714 39.233-.157 55.232c.593 16.642 6.428 71.138 6.428 71.138h8.892s.322-53.525.715-69.867c.428-17.856 2.578-56.503 2.578-56.503h-18.456Z" fill="#263238" fill-rule="evenodd" style="--darkreader-inline-fill:#1e282d" transform="translate(-87.09 -9.1)" data-name="Path 322"/><path d="M343.929 393.84c-.043 0 .5 3.693.5 3.693h10.814l.292-3.293-11.606-.4Z" fill="#f2ad0b" fill-rule="evenodd" style="--darkreader-inline-fill:#f5b725" transform="translate(-89.054 -58.242)" data-name="Path 323"/></g></g></svg>