<svg xmlns="http://www.w3.org/2000/svg" width="61.082" height="61.083" viewBox="156.959 275.268 61.082 61.083"><path d="M36.36.237a2.586 2.586 0 0 0-3.054 2.543v7.446a20.828 20.828 0 1 0 17.926 17.926h7.464a2.586 2.586 0 0 0 2.543-3.055A31.157 31.157 0 0 0 36.36.237Zm4.705 33.087h-5.889a5.157 5.157 0 1 1-7.042-7.042v-8.476a2.586 2.586 0 0 1 5.172 0v8.476a5.173 5.173 0 0 1 1.87 1.87h5.89a2.586 2.586 0 0 1 0 5.172ZM7.407 12.551a2.586 2.586 0 1 1-.966 5.082 2.586 2.586 0 0 1 .966-5.082ZM3.269 22.863a2.586 2.586 0 1 1-.008 0Zm22.61 33.28a2.586 2.586 0 1 1-.008 0ZM15.223 4.616a2.586 2.586 0 1 1-.966 5.082 2.586 2.586 0 0 1 .966-5.082ZM26.018.243a2.586 2.586 0 1 1-1.054 5.064A2.586 2.586 0 0 1 26.018.243ZM.29 36.03a2.586 2.586 0 1 1 5.082.966A2.586 2.586 0 0 1 .29 36.03Zm4.348 10.25a2.586 2.586 0 1 1 5.082.965 2.586 2.586 0 0 1-5.082-.966Zm7.894 7.735a2.586 2.586 0 1 1 5.081.966 2.586 2.586 0 0 1-5.081-.966Zm41.502-5.087a2.586 2.586 0 1 1 1.942-.408 2.586 2.586 0 0 1-1.942.405Zm-7.816 7.932a2.586 2.586 0 1 1 .967-5.082 2.586 2.586 0 0 1-.967 5.082ZM36.03 61.143a2.586 2.586 0 1 1 3.026-2.056 2.586 2.586 0 0 1-3.026 2.045ZM61.01 35.91a2.586 2.586 0 1 1-5.172 0 2.586 2.586 0 0 1 5.172 0Z" fill="#fff" fill-rule="evenodd" style="--darkreader-inline-fill:#181a1b" transform="translate(156.76 275.08)" data-name="time-quarterpast"/></svg>